/* XPM */
static char *asset_onigiri[] = {
/* columns rows colors chars-per-pixel */
"32 32 12 1 ",
"  c #2A251A",
". c #222034",
"X c #5F3F3B",
"o c #C7C3BA",
"O c #D2CDC1",
"+ c #DDD9CF",
"@ c #E0DCD3",
"# c #E7E5DD",
"$ c #E8E7E0",
"% c #ECEBE5",
"& c #EDECE4",
"* c #F5F4EC",
/* pixels */
"XXXXXXXXXXXXXXXXXXXXXXXXXXXXXXXX",
"XXXXXXXXXXXXXXXXXXXXXXXXXXXXXXXX",
"XXXXXXXXXXXXXXXXXXXXXXXXXXXXXXXX",
"XXXXXXXXXXXXXXXXXXXXXXXXXXXXXXXX",
"XXXXXXXXXXXXXXXXXXXXXXXXXXXXXXXX",
"XXXXXXXXXXXXXXXXXXXXXXXXXXXXXXXX",
"XXXXXXXXXXXXXXXXXXXXXXXXXXXXXXXX",
"XXXXXXXXXXXXXXXXXXXXXXXXXXXXXXXX",
"XXXXXXXXXXXXX......XXXXXXXXXXXXX",
"XXXXXXXXXXXX.%%%%%%.XXXXXXXXXXXX",
"XXXXXXXXXXX.%%%%%%%%.XXXXXXXXXXX",
"XXXXXXXXXX.%%%%%%%%%%.XXXXXXXXXX",
"XXXXXXXXX.%$%%%%%%%*$%.XXXXXXXXX",
"XXXXXXXX.%%$$$&%%&$*$%%.XXXXXXXX",
"XXXXXXX.%*$&$%&&&&%$&$%%.XXXXXXX",
"XXXXXXX.%**&&*%%%%&&&$$%.XXXXXXX",
"XXXXXX.%%&&%&%*%%%%&%&&%%.XXXXXX",
"XXXXXX.$$%&%%&&&&&&%%&%$$.XXXXXX",
"XXXXX.%&%%%%&&&%%&&&%%%%&%.XXXXX",
"XXXXX.%& %%%%%&%%&%%%%%% %.XXXXX",
"XXXX.%%%%%&%%%%%%  %%&%%%%%.XXXX",
"XXXX.@%&&%**%%%$$%%%&$%&&%@.XXXX",
"XXXX.+@%&&%$$&&$$&&$$%*&%@+.XXXX",
"XXXX.o+#%#%%%%%$$%%%%%#%#+o.XXXX",
"XXXX.o@+@%%%$%%%%%%$%%%@+@o.XXXX",
"XXXXX.oO++++##+##+##++++Oo.XXXXX",
"XXXXXX.ooOOooooooooooOOoo.XXXXXX",
"XXXXXXX..................XXXXXXX",
"XXXXXXXXXXXXXXXXXXXXXXXXXXXXXXXX",
"XXXXXXXXXXXXXXXXXXXXXXXXXXXXXXXX",
"XXXXXXXXXXXXXXXXXXXXXXXXXXXXXXXX",
"XXXXXXXXXXXXXXXXXXXXXXXXXXXXXXXX"
};
