/* XPM */
static char *onigiri_salmon[] = {
/* columns rows colors chars-per-pixel */
"32 32 8 1 ",
"$ c black",
". c #A8444D",
"X c #D95763",
"o c #DEC0BA",
"O c #E9DBD8",
"+ c #F4EEED",
"@ c white",
"# c None",
/* pixels */
"################################",
"################################",
"################################",
"################################",
"################################",
"################################",
"################################",
"################################",
"#########XXXXXXXXXX#############",
"#######XXXXXXXXXXXXXXX##########",
"######XXooXXXXXXXXXXXXX#########",
"#####XX+OXXXXXXXXXXXXXXX########",
"#####XXOXoXXXXXXXXXXXXXXX#######",
"####XXoXXXXXXXXXXXXXXXXXXX######",
"####XoXXXXXXXXXXXXXXXXXXXXX#####",
"####XXXXXXXX....XXXXXXXXXXX#####",
"####.XXXXXX.......XXXXXXXXX#####",
"#####........@@@@...XXXXXXX#####",
"########..@@@@@@@@@..XXXXX######",
"#######@@@@@@@@@@@@@@@....######",
"######@@@@@@@@@@@@@@@@@@@@######",
"######@@@$@@@@@@@@@@@@$@@@######",
"#####@@@@@@@@@@@@@@@@@@@@@######",
"#####@@@@@@@@@$$$$@@@@@@@@@#####",
"#####@@@@@@@@@@@@@@@@@@@@@@#####",
"######@@@@@@@@@@@@@@@@@@@@@#####",
"################################",
"################################",
"################################",
"################################",
"################################",
"################################"
};
