/* XPM */
static char *floor[] = {
/* columns rows colors chars-per-pixel */
"32 32 3 1 ",
"# c #663931",
". c #8F563B",
"X c #D9A066",
/* pixels */
"#################...............",
".......####################.....",
"##############..................",
"########X########.XXXXXXX.......",
".......##XXXXXXXXXXX...........X",
".XXXXXXX.......................X",
"..............................XX",
"................................",
"........XXXXXX..................",
".......................#........",
".......................#########",
"..###############........XX###X.",
"################################",
"#####################.##########",
"###############.....############",
"###########......XXX############",
"#########.......################",
"#############X##################",
"####...##X#############.........",
"###############XXX..............",
"###...........###############...",
".......####################XXXX#",
"..####.........##############...",
"###.............................",
"########........................",
"...............XX...............",
"................#.....X#########",
"............###############....#",
"########################XXX#####",
"###################..######XXXXX",
"####################XXXXXXXXXXXX",
"#################..............."
};
