/* XPM */
static char *a2[] = {
/* columns rows colors chars-per-pixel */
"64 64 11 1 ",
"  c #04372F",
". c #242238",
"X c #5C2A32",
"o c #094D1F",
"O c #0F5726",
"+ c #094D39",
"@ c #1B712D",
"# c #6D4239",
"$ c #69564B",
"% c #834D30",
"& c #2B9341",
/* pixels */
"%%%%%%%%%%%%%%%%%%%%%%%%%%%%%%%%##%%%%%%%%%%%%%%%%%%%%%%%%%%%%%%",
"%%%%%%%%%%%%%%%%%%%%%%%%%%%%%%%%##%%%%%%%%%%%%%%%%%%%%%%%%%%%%%%",
"%%XXXX%%XX%%$$XXXXXXXXXX%%%%%%####XXXX##XXXXXX%%%%%%XXXX$$XXXX%%",
"%%XXXX%%XX%%$$XXXXXXXXXX%%%%%%####XXXX##XXXXXX%%%%%%XXXX$$XXXX%%",
"%%XXXX%%XX%%$$XXXXXXXXXX%%##%%####%%%%##%%XX..%%%%%%XXXX$$XXXX%%",
"%%XXXX%%XX%%$$XXXXXXXXXX%%##%%####%%%%##%%XX..%%%%%%XXXX$$XXXX%%",
"%%%%%%%%%%%%%%%%%%$$$$$$$$$$%%$$..$$$$$$%%..  ..%%%%$$$$$$$$$$%%",
"%%%%%%%%%%%%%%%%%%$$$$$$$$$$%%$$..$$$$$$%%..  ..%%%%$$$$$$$$$$%%",
"%%XXXX%%%%%%$$XX%%$$$$$$$$$$%%..  ..$$....    ....%%XXXX$$XXXX%%",
"%%XXXX%%%%%%$$XX%%$$$$$$$$$$%%..  ..$$....    ....%%XXXX$$XXXX%%",
"%%%%%%%%%%%%%%%%%%$$$$$$$$$$....  ....      ..    ..XXXX$$XXXX%%",
"%%%%%%%%%%%%%%%%%%$$$$$$$$$$....  ....      ..    ..XXXX$$XXXX%%",
"%%$$$$%%$$%%XXXX......XX....  ++  ..  OOOOOO    ..%%%%%%%%%%%%%%",
"%%$$$$%%$$%%XXXX......XX....  ++  ..  OOOOOO    ..%%%%%%%%%%%%%%",
"%%XXXX%%XX%%XX..      ..  oo@@++  ..OOOOOOOOOO  ..%%%%%%%%%%%%%%",
"%%XXXX%%XX%%XX..      ..  oo@@++  ..OOOOOOOOOO  ..%%%%%%%%%%%%%%",
"%%XXXX%%%%%%..  OOOOoooo@@OO@@  ..OOOOOOOOOO  ..$$%%%%%%%%%%%%%%",
"%%XXXX%%%%%%..  OOOOoooo@@OO@@  ..OOOOOOOOOO  ..$$%%%%%%%%%%%%%%",
"%%XXXX$$$$..    OO  OO@@@@OO  ..OOOO@@OOOO  ++..XX$$..$$$$XXXX%%",
"%%XXXX$$$$..    OO  OO@@@@OO  ..OOOO@@OOOO  ++..XX$$..$$$$XXXX%%",
"%%XXXX$$$$..  ..oo@@&&&&    ..OO@@@@@@++++++........  ..$$XXXX%%",
"%%XXXX$$$$..  ..oo@@&&&&    ..OO@@@@@@++++++........  ..$$XXXX%%",
"%%XXXX$$..    ++&&&&OO  ....&&&&@@OOOO++++....OOOOOO  ..%%%%XX%%",
"%%XXXX$$..    ++&&&&OO  ....&&&&@@OOOO++++....OOOOOO  ..%%%%XX%%",
"%%%%%%$$$$..oo@@&&    ....  &&@@OO  ++......OO@@++++..$$$$%%XX%%",
"%%%%%%$$$$..oo@@&&    ....  &&@@OO  ++......OO@@++++..$$$$%%XX%%",
"%%%%XX$$..ooOOOO    ....OO&&@@++  ++..OO@@@@@@++....%%..$$%%XX%%",
"%%%%XX$$..ooOOOO    ....OO&&@@++  ++..OO@@@@@@++....%%..$$%%XX%%",
"%%%%%%%%..  OO  ......OO&&oo++++++@@@@OOOOOO++..##XX..  ..%%XX%%",
"%%%%%%%%..  OO  ......OO&&oo++++++@@@@OOOOOO++..##XX..  ..%%XX%%",
"%%####$$..OO....++++OO@@@@++++++@@++OOOOOO++........    ..####%%",
"%%####$$..OO....++++OO@@@@++++++@@++OOOOOO++........    ..####%%",
"%%####..    ..++ooOO    ++....&&++      ++....  ++  ++..$$####%%",
"%%####..    ..++ooOO    ++....&&++      ++....  ++  ++..$$####%%",
"%%##..    ..++oo@@OO  ++..++&&&&OOOO  ....  OO++  ++++....%%%%%%",
"%%##..    ..++oo@@OO  ++..++&&&&OOOO  ....  OO++  ++++....%%%%%%",
"%%XX%%......++@@OO++++..++&&OOOOOO@@..OOOOOO    ++OOOO    ..%%%%",
"%%XX%%......++@@OO++++..++&&OOOOOO@@..OOOOOO    ++OOOO    ..%%%%",
"%%XX%%$$$$..OO@@++++..@@ooOOOO&&@@OOOOOO  ##%%%%OO@@  ....%%%%%%",
"%%XX%%$$$$..OO@@++++..@@ooOOOO&&@@OOOOOO  ##%%%%OO@@  ....%%%%%%",
"%%XX%%....  OO++++++oooo  ++&&&&OOOO    ..  ++OOOO  ..$$$$XXXX%%",
"%%XX%%....  OO++++++oooo  ++&&&&OOOO    ..  ++OOOO  ..$$$$XXXX%%",
"%%XX..  ++OOOO..OO@@@@  ++&&OO++OO......  ++@@OO  ..$$$$$$XXXX%%",
"%%XX..  ++OOOO..OO@@@@  ++&&OO++OO......  ++@@OO  ..$$$$$$XXXX%%",
"%%XX..OOOO....++OO  ++++OOOO    ..%%..  &&&&OO  ..XX$$$$$$XXXX%%",
"%%XX..OOOO....++OO  ++++OOOO    ..%%..  &&&&OO  ..XX$$$$$$XXXX%%",
"%%%%%%......++++  ......      ..##..++&&&&OO  ..XXXX%%%%%%XXXX%%",
"%%%%%%......++++  ......      ..##..++&&&&OO  ..XXXX%%%%%%XXXX%%",
"%%%%%%....++++  ..XX..    ....##..++@@OOOO....XXXXXX%%XX%%XXXX%%",
"%%%%%%....++++  ..XX..    ....##..++@@OOOO....XXXXXX%%XX%%XXXX%%",
"%%%%..      ....%%$$..  ..##XX..++@@@@++..XXXXXXXXXX%%$$%%$$$$%%",
"%%%%..      ....%%$$..  ..##XX..++@@@@++..XXXXXXXXXX%%$$%%$$$$%%",
"%%XX..  ....%%%%%%$$$$..%%##..  OO  ....$$$$$$%%%%%%%%%%%%%%%%%%",
"%%XX..  ....%%%%%%$$$$..%%##..  OO  ....$$$$$$%%%%%%%%%%%%%%%%%%",
"%%XXXX..XXXX%%%%%%$$$$%%$$..      ..$$$$$$$$$$%%XX$$%%%%%%XXXX%%",
"%%XXXX..XXXX%%%%%%$$$$%%$$..      ..$$$$$$$$$$%%XX$$%%%%%%XXXX%%",
"%%$$$$$$$$$$%%%%%%$$$$%%$$..  ....%%$$$$$$$$$$%%%%%%%%%%%%%%%%%%",
"%%$$$$$$$$$$%%%%%%$$$$%%$$..  ....%%$$$$$$$$$$%%%%%%%%%%%%%%%%%%",
"%%XXXX$$XXXX%%%%%%XXXX%%%%##..####%%XX%%XXXXXXXXXX$$%%XX%%XXXX%%",
"%%XXXX$$XXXX%%%%%%XXXX%%%%##..####%%XX%%XXXXXXXXXX$$%%XX%%XXXX%%",
"%%XXXX$$XXXX%%%%%%XXXXXXXX##XX####%%%%%%XXXXXXXXXX$$%%XX%%XXXX%%",
"%%XXXX$$XXXX%%%%%%XXXXXXXX##XX####%%%%%%XXXXXXXXXX$$%%XX%%XXXX%%",
"%%%%%%%%%%%%%%%%%%%%%%%%%%%%%%%%##%%%%%%%%%%%%%%%%%%%%%%%%%%%%%%",
"%%%%%%%%%%%%%%%%%%%%%%%%%%%%%%%%##%%%%%%%%%%%%%%%%%%%%%%%%%%%%%%"
};
