/* XPM */
static char *a[] = {
/* columns rows colors chars-per-pixel */
"64 64 11 1 ",
"  c #04392F",
". c #222034",
"X c #5C2A32",
"o c #015434",
"O c #046932",
"+ c #6D4239",
"@ c #076A43",
"# c #69564B",
"$ c #834D30",
"% c #0A813F",
"& c #3AB571",
/* pixels */
"$$$$$$$$$$$$$$$$$$$$$$$$$$$$$$$$++$$$$$$$$$$$$$$$$$$$$$$$$$$$$$$",
"$$$$$$$$$$$$$$$$$$$$$$$$$$$$$$$$++$$$$$$$$$$$$$$$$$$$$$$$$$$$$$$",
"$$XXXX$$XX$$##XXXXXXXXXX$$$$$$..++XXXX++XXXXXX$$$$$$XXXX##XXXX$$",
"$$XXXX$$XX$$##XXXXXXXXXX$$$$$+..++XXXX++XXXXXX$$$$$$XXXX##XXXX$$",
"$$XXXX$$XX$$##XXXXXXXXXX$$++.. @..$$$$++$$XXXX$$$$$$XXXX##XXXX$$",
"$$XXXX$$XX$$##XXXXXXXXXX$$++..  ..$$$$++$$XXXX$$$$$$XXXX##XXXX$$",
"$$$$$$$$$$$$$$$$$$######.... @@o.@..####$$####$$$$$$##########$$",
"$$$$$$$$$$$$$$$$$#######....o o@  ..####$$####$$$$$$##########$$",
"$$XXXX$$$$$$##XX$$####.. oOooOOo@o  ..###$####$$$$$$XXXX##XXXX$$",
"$$XXXX$$$$$$##XX$$####..o OoOOoO@@@ ..##$$####$$$$$$XXXX##XXXX$$",
"$$$$$$$$$$$$$$$$$$.... .ooooo@Oo@o@@@ ..$$####$$$$$$XXXX##XXXX$$",
"$$$$$$$$$$$$$$$$$+.... @@ooo@ooOo@@   ..$$####$$$$$$XXXX##XXXX$$",
"$$####$$##$$XXXX..o@  OOo@oooooo@@OO@o o..XX##$$$$$$$$$$$$$$$$$$",
"$$####$$##$$XXXX..  oooo@ooooooO@oOOo@o ..XX##$$$$$$$$$$$$$$$$$$",
"$$XXXX$$XX$$....o OooooO%%ooOOoooOOOOOoo..XXXX####$$$$$$$$$$$$$$",
"$$XXXX$$XX$$.... oo@o@OO%OoooOooOOOOOO  ..XXXX####$$$$$$$$$$$$$$",
"$$XXXX$$$$.. @ooooo@OOoOo@@%OoO@ooOOOOOoo...$$XX##$$$$$$$$$$$$$$",
"$$XXXX$$$$..o.o @o@oOO@oOo%%ooOOo OOOOOO @..$$XX##$$$$$$$$$$$$$$",
"$$XXXX##.. o@@o@OOOOOOOOoOoOO%&&OOooOOOO@@o ..$$XX########XXXX$$",
"$$XXXX##..oo@o@oOOOOOOOOOoOo%%&&OOooOOOOo@  ..$#XX########XXXX$$",
"$$XXXX..o @%%%o@oOOO@%OOOOOOoO%%ooooOOoo@o@oo ..XXXX######XXXX$$",
"$$XXXX.. o%%%@@oOoOO%%OOOOOO@O%OooooOOOoo@o@  ..XXXX######XXXX$$",
"$$XX..o @o@o%%oooOoOooooooo@oOoO%%ooooO@o@@oo@o ..XX$$$$$$$$XX$$",
"$$XX..o oOo@%%ooOoOOoooooo@o@oOo%%ooooOo@oo@@@ o..XX$$$$$$$$XX$$",
"$$$$..   .@@@ @@o OOOoooooO%ooOO%%oo&&O@OOooOo@o  ..$$####$$XX$$",
"$$$$..    o@ o@@ooOooOoooo%%ooOo%%OO&&@@OOoOoOo@ @..$#####$$XX$$",
"$$..@  @    @o@o@@O%Oooooo%%%%oOOoOooooo&&OOOoOo@@  ..####$$XX$$",
"$$.. .@  .  o@o@@O%%oOoooO%%%OOOoOoOoooo&&OOoOoO@@@...####$$XX$$",
"$$$$.. o      @oOOooOOOoooooOOoo@o@OoOoooooOoooOo@  ..####$$XX$$",
"$$$$..o       @@oOoo@@oOooOOOOoooOoOOoooooOooooO@o  ..####$$XX$$",
"$$++++..        OOOO%%ooooooO@@%oo@@OOoOooOOOO oO@@@  ..##++++$$",
"$$++++.. o      OOOO%%ooOoooOo%%oo@@OOooooOOOOooO@@@@...##++++$$",
"$$++++##..  @     OOo@%%%%OoooOoOOooO@OOooOoOOooooooOOoo..++++$$",
"$$++++##..@@ o    O@Oo%%%%oOoooO@@ooO@@oooOoOOooooooOO  ..##++$$",
"$$++++####.. @    o OOOOooooOoO@Oo@@oooOoooo&&OOoOoooOoO  ..$$$$",
"$$++++####.. .      OOOOoooooOOOoO@@oo@oOooo&&OOoooo@oOoo ..$$$$",
"$$XX$$#####+.. @      o@OOOooooo@@@@O%oooooOoooo&&o@ooo ..XX$$$$",
"$$XX$$####$$..o       OoOOOoooOO@@@@%%ooooOooooo&&OOoo  ..XX$$$$",
"$$XX$$####$$++.. o    o OOOOooooOO@@@@OOoooooOooOO%%    ..$$$$$$",
"$$XX$$####$$++..o       ooOOOOooO@@@@OOOooooooooOO%%    ..$$$$$$",
"$$XX$$$$$$$$XXXX..        @o@o@oooooOO@@OOOOoooO@@@   .@  ..XX+$",
"$$XX$$$$$$$$XXXX..o  o    @@o@ooooooOO@@OOoO oOo@@.  .@ @ ..XX$$",
"$$XXXX######XXXX$$.. o      @@OOoooOooOO@@@oooo@.    @  ..XXXX$$",
"$$XXXX######XXXX$$..oo      o@OOooooooOO@@oOo @@.  .@ @ ..XXXX$$",
"$$XXXX########XX$$..          @@OOoooooo&&@o o        ..##XXXX$$",
"$$XXXX########XX$$..o         @@OOoooooo&&o@o      @@...##XXXX$$",
"$$$$$$$$$$$$$$##XX$$..@. @ o    OOooo %%o@oo    @ ....$$$$XXXX$$",
"$$$$$$$$$$$$$$##XX$$.. @  @o    OOoooo%%@o      . ....$$$$XXXX$$",
"$$$$$$$$$$$$$$####XXXX...   @     @oo@@         ..XX$$XX$$XXXX$$",
"$$$$$$$$$$$$$$####XXXX..@    o    oo@@ @ .@    ...XX$$XX$$XXXX$$",
"$$$$$$$$$$$$$$$$$$##XXXX..o      o    .      o..XXXX$$##$$####$$",
"$$$$$$$$$$$$$$$$$$##XXXX.. o    @             ..XXXX$$##$$####$$",
"$$XXXX##XXXX$$$$$$####$$#$...@  .         @ ..$$##$$$$$$$$$$$$$$",
"$$XXXX##XXXX$$$$$$####$$$$..   .    ..      ..$$$+$$$$$$$$$$$$$$",
"$$XXXX##XXXX$$$$$$####$$####..@@     @@ @...##$$XX##$$$$$$XXXX$$",
"$$XXXX##XXXX$$$$$$####$$####..        .@.@..##$$XX##$$$$$$XXXX$$",
"$$##########$$$$$$####$$######..   @ .....####$$$$$$$$$$$$$$$$$$",
"$$##########$$$$$$####$$######.. o.@ @....####$$$$$$$$$$$$$$$$$$",
"$$XXXX##XXXX$$$$$$XXXX$$$$++$$++..  ..##XXXXXXXXXX##$$XX$$XXXX$$",
"$$XXXX##XXXX$$$$$$XXXX$$$$++$$++..@ ..$+XXXXXXXXXX##$$XX$$XXXX$$",
"$$XXXX##XXXX$$$$$$XXXXXXXX++XX++++..$$$$XXXXXXXXXX##$$XX$$XXXX$$",
"$$XXXX##XXXX$$$$$$XXXXXXXX++XX++++..$$$$XXXXXXXXXX##$$XX$$XXXX$$",
"$$$$$$$$$$$$$$$$$$$$$$$$$$$$$$$$++$$$$$$$$$$$$$$$$$$$$$$$$$$$$$$",
"$$$$$$$$$$$$$$$$$$$$$$$$$$$$$$$$++$$$$$$$$$$$$$$$$$$$$$$$$$$$$$$"
};
