/* XPM */
static char *c1[] = {
/* columns rows colors chars-per-pixel */
"64 64 10 1 ",
"  c #1D1D3D",
". c #5C2A32",
"X c #6D4239",
"o c #17364E",
"O c #1C4962",
"+ c #69564B",
"@ c #834D30",
"# c #3B6F99",
"$ c #A1A6CD",
"% c #A4C9D5",
/* pixels */
"@@@@@@@@@@@@@@@@@@@@@@@@@@@@@@@@XX@@@@@@@@@@@@@@@@@@@@@@@@@@@@@@",
"@@@@@@@@@@@@@@@@@X@@@@@X@@@@@@@@XX@@@@@@@@@@@@@@@@@@@@@@@@@@@@@@",
"@@....@@..@@++......X...@@@@@@XXXXX...XX......@@@@@@....++....@@",
"@@....@@..@@++..........@@@@@@XXXX....XX......@@@@@@....++....@@",
"@@....@@..@@++..........@@XX@@XXXX@@@@XX@@....@@@@@@....++....@@",
"@@....@@..@@++...X.....X@@XX@@XXXX@X@@XX@@....@@@@@@....++....@@",
"@@@@@@@@@@@@@@@@@@++++++++++@@++++++++X+@@++++@@@@@@++++++++++@@",
"@@@@@@@@@@@@@@@@XX++++++++++@@++++++++++@@++++@@@@@@++++++++++@@",
"@@....@@@@@@++..@@@+++++++++@@++++++++++@@++++@@@@@@....++....@@",
"@@....@@@@@@++..@@++++++++++@@+@++++++++@@++++@@@@@@....++....@@",
"@@@@@@@@@@@@@@@@@@++++++++++@@XXXX@@@@XX@@++++@@@@@@....++....@@",
"@@@@@@@@@@@@@@@@@X++++++++++@@XXXX@@@@XX@@++++@+@@@@....++....@@",
"@@++++@@++@@............@@@+@@XXXX..XXXX          @@@@@@@@@@@@@@",
"@@++++@@++@@............@@XX@@XXXX.XXXXX   o   o  @@@@@@@@@@@@@@",
"@@....@@..@@............@@XX@@XXXX      OOOOOO#OOO  @@@@@@@@@@@@",
"@@....@@..@@...........X@XXX@@XXXX      OOOOOOOOOO  @@@@@@@@@@@@",
"@@....@@@@@@....@@@@@@@@        ooOOOOOO#OO#OO##    @@@@@@@@@@@@",
"@@....@@@@@@....@@@@@@@@      oo oOOOO#OOOO#####    @@@@@@@@@@@@",
"@@....++++++....@@      oOoOoOOoOOO#O#OO  %%####      ++++....@@",
"@@....++++++....@@      OoOoOooOOoOOOOOO  %%####      ++++....@@",
"@@....++++++....  OoOoOooOoOOO#OOOO#####    %%%%  %%%%  ++....@@",
"@@....++++++.... .oOoOoOOOOooOOOOOOO####    %%%%  %%%%  ++....@@",
"@@....++++++....X@  OooOoo#OOOOOOO##%%$%%%$%%%%%%%%%. @@@@@@..@@",
"@@....++++++....@@  oooooOOOOOO#OO##%%%%%$%%%%%%%%%%o @@@@@@..@@",
"@@@@@@++++++@@@@@@@@  oOoOOOOO####$%%%%%%%%%%%%%%%%%  ++++@@..@@",
"@@@@@@++++++@@@@@@@@  OoOoOOO#####%%%%%%%%%%%%%%%%%%  ++++@@..@@",
"@@@@..++++++..@@@@@@  #OO#OO###%$%%%%%%%%%%%%%%%%%  @@++++@@..@@",
"@@@@..++++++..@@@@@@ oOOOOOO##%%$%%%%%%%%%%%%%%%%%  @@++++@@..@@",
"@@@@@@@@@@@@@@@@@@@@  OO####%%%%%%%%%%%%%%%%%%Oo$#  @@++++@@..@@",
"@@@@@@@@@@@@@@@@@@@@  OO####%%%%%%%%%%%%%%%%%%o $$  @@++++@@..@@",
"@@XXXX++++XXXXXXXX  OOO###%%%%%%%%%%%%%%%%%%+o$#$$  XX++++XXXX@@",
"@@XXXX++++XXXXXXXX  OOOO##%%%%%%%%%%%%%%%%%%oO$$$$  XX++++XXXX@@",
"@@XXXX++++XXXXXX.+  OO##%%%%%%%%%%%%%%%%%%OOOO$@. XXXX++++XXXX@@",
"@XXXX+++++XXXXXX+. oOO##%$%%%%%%%%%%%%%%%%O#OO$$  XXXX++++XXXX@@",
"@@XXXX++++XXXXXX  #O#O##%$%%%%%%%%%%%%%%$$#$$$$$  @@@@@@@@@@@@@@",
"@@XXXX++++XXXXXX  OOOO##%%%%%%%%%%%%%%%%$$$$#$$$  @@@@@@@@@@@@@@",
"@@X.@@@+++XX....  OO##%%%%%%%%%%%%%%$$$$$#$#$$  @@..++++++..@@@@",
"@@..@@++++@@....  #O##%%%%%%%%%%%%%$%$$$$$$$$$  @@..++++++..@@@@",
"@@..@@++++@@XXXX  OO##%%%%%%%%$%%%$$$#$# o$$. @@@@@@++++++@@@@@@",
"@X..@++++@@@XXXX oOO##%%%%%%%%%%%%$$$$$$ .$$  @@@@@@++++++@@@@@@",
"@@..X@@@@@@@XX    OO##$$%%%%%%%%$$$$+$$$.O  @@@@....++++++....@@",
"@@..@@@@@@@@..    #O##%%%%%%%%%%$$$#$$$$.   @@@@....++++++....@@",
"@@X...++      ooOoOO##%%%%%$%%$%$#$$$$@$  OO  @@....++++++....@@",
"@@....++   o  o OOOO##%%%%%$%%$$$$$#$$$$  OO  @@....++++++....@@",
"@@....  o oOoO+OoooOOO%%%%$$$$%#$$$$      OO  @@....++++++....@@",
"@@....  ooooOoooooOOO#%%%%$$$#$$$$$$      #O  @@....++++++....@@",
"@@@@@@@@    o oOOOooOoOO$@$$$$  ooOo  @@X@  X@@@....@@@@@@....@@",
"@@@@@@@@      ooOooO.OOO$$$$+$  oooO  @@@@  @@@@....@@@@@@....@@",
"@@@@@@@@@@@@@@  oOOoOooo      XX  OO  @@............@@..@@....@@",
"@@@@@@@@@@@@@@  OooOoOoo      XX  OO  @@............@@..@@....@@",
"@@@@@@@@@@@@@@@@  ooOoo XXXX..XXXX  ..@@............@@++@@++++@@",
"@@@@@@@@@@@@@@@@  Ooo+  XXXX.XXXXX  ..@@............@@++@@++++@@",
"@@....++....@@@@@@  oo  X@XXX@XXXXX@++++++++++@@@@@@@@@@@@@@@@@@",
"@@....++....@@@@@@      @@X+@@X+XX@@++++++++++@@@@@@@@@@@@@@@@@@",
"@@....++....@@@@@@  oo  @+++@+++++@@++++++++++@@..++@@@@@@....@@",
"@@....++....@@@@@X  o   ++++++++++@@++++++++++@@..++@@@@@@....@@",
"@@++++++++++@@@@@@   o  ++++++++++@@++++++++++@@@@@@@@@@@@@@@@@@",
"@@++++++++++@@@@@@  oo  ++++++++++@@++++++++++@@@@@@@@@@@@@@@@@@",
"@@....++....@@@@@@..  @@@@XX@@XXXX@@..@@..........++@@..@@....@@",
"@@....++....@@@@@@..  @@@@XX@@XXXX@@..@@..........++@@..@@....@@",
"@@....++....@@@@@@........XX..XXXX@@@@@@..........++@@..@@....@@",
"@@....++....@@@@@@........XX..XXXX@@@@@@..........++@@..@@....@@",
"@@@@@@@@@@@@@@@@@@@@@@@@@@@@@@@@XX@@@@@@@@@@@@@@@@@@@@@@@@@@@@@@",
"@@@@@@@@@@@@@@@@@@@@@@@@@@@@@@@@XX@@@@@@@@@@@@@@@@@@@@@@@@@@@@@@"
};
