/* XPM */
static char *e[] = {
/* columns rows colors chars-per-pixel */
"64 64 14 1 ",
"  c #2D093A",
". c #222034",
"X c #410D10",
"o c #4E2812",
"O c #4A213E",
"+ c #5C2A32",
"@ c #49135C",
"# c #69564B",
"$ c #834D30",
"% c #664190",
"& c #8352BA",
"* c #B351AF",
"= c #B266CF",
"- c #EC81E7",
/* pixels */
"$$$$$$$$$$$$$$$$$$$$$$$$$$$$$$$$+$$$$$$$$$$$$$$$$$$$$$$$$$$$$$$$",
"$$$$$$$$$$$$$$$$$$$$$$$$$$$$$$$$$+$$$$$$$$$$$$$$$$$$$$$$$$$$$$$$",
"$$++++$$++$$##++++++++++$$$$$$+###+++++#++++++$$$$$$++++##++++$$",
"$$++++$$++$$##++++++++++$$$$$$#$+$+++++$++++++$$$$$$++++##++++$$",
"$$++++$$++$$##++++++++++$$##$$+$+#$$$$#$$$++++$$$$$$++++##++++$$",
"$$++++$$++$$##++++++++++$$+$$$$+$$$$$$++$$++++$$$$$$++++##++++$$",
"$$$$$$$$$$$$$$$$$$##########$$##########$$####$$$$$$##########$$",
"$$$$$$$$$$$$$$$$$$##########$$##########$$####$$$$$$##########$$",
"$$++++$$$$$$##++$$##########.... ...####$$####$$$$$$++++##++++$$",
"$$++++$$$$$$##+++###########........####$$####$$$$$$++++##++++$$",
"$$$$$$$$$$$$$$$$............@@@ @@@@............$$$$++++##++++$$",
"$$$$$$$$$$$$$$$$............@@@@@@@@............$$$$++++##++++$$",
"$$####$$##......&&&&&&&&&&&&@@@@@@@@%&&&&&&&&&&&......$$$$$$$$$$",
"$$####$$##......&&&&&&&&&&&&@@@@@@@@&&&&&&&&&&&&......$$$$$$$$$$",
"$$++++$$..&&&&&&&&&&&&&&&&&&@@@@@@@@&&&&&&&&&&&&&&&&&&..$$$$$$$$",
"$$++++$$..&&&&&&&&&&&&&&&&&&@@@@@@@@&&&&&&&&&&&&&&&&&&..$$$$$$$$",
"$$++++..&&&&&&&&&&&&&&&&&&&&@@@@@@@@&&&&&&&&&&&&&&&&&&&&..$$$$$$",
"$$++++..&&&&&&&*&&&&&&&&&&&&@@@ @@@@&&&&&&&&&&&&&&&&&&&&..$$$$$$",
"$$++..&&&&&&&&**&&&&&&&&&&&&@@@@@@@@&&&&&&&&&&&&&&&&&&&&&&..++$$",
"$$++..&&&&&&&&=-&&&&&&&&&&&&@@@@@@@@&&&&&&&&&&&&&&&&&&&&&&..++$$",
"$$++..&&&&&&*-*-&&&&=-&&&&&&@@@@@@@@&&&&&&&&&&&&&&&&&&&&&&..++$$",
"$$++..&&&&&&-*--&&&&-*&&&&&&@@@@@@@@&&&&&&&&&&&&&&&&&&&&&&..++$$",
"$$++..&&&&*---&&**XX&&&&&&&&@@@@@@@@&&&&&&&&&&&&&&&&&&&&&&..++$$",
"$$++..&&&*-*-*&&%*XO&&&&&&&&@@@@@@@@&&&&&&&&&&&&&&&&&&&&&&..++$$",
"$$..&&&&&&XX&&XXXX*&--***&&&@@@@ @@@%&&&&&&&&&&&&&&&&&&&&&&&..$$",
"$$..&&&&&&XX&&XXXX&&-**-&&&&@@@@@@@@&&&&&&&&&&&&&&&&&&&&&&&&..$$",
"$$..&&XX*-&&XXXX**&&&&&&&&-*@@@@@@@@&&--&&&&&&&&&&&&&&&&&&&&..$$",
"$$..&&XX-=&&XXXX**&&&&&&&&*-@@@@@@@@&&--&&&&&&&&&&&&&&&&&&&&..$$",
"$$..--&&&&&&&&XX&&&&XX---*&&@@@@@@@@&&&&&&&&&&&&&&&&&&&&&&&&..$$",
"$$..-=&&&&&&&&XX&&&&XX=-*-&&@@@@@@@@&&&&&&&&&&&&&&&&&&&&&&&&..$$",
"$$..&&&&&&XXXX&&XXXX&&XX*&&&@@@@@@@@&&&&&&&&&&&&&&&&&&--&&&&..$$",
"$$..&&&&&&XXXX&&XXXX&&XX&&&&@@@@@@@@&&&&&&&&&&&&&&&&&&--&&&&..$$",
"$#..&&&&&&XX&&=%&&&&&&&&*%&&@@ @@@@@%&&&&&&&&&-=&&&&&&&&&&&&#.##",
"$#..&&&&&%XX&&&&&&&&&&&&*&&&@@@@@@@@&&&&&&&&&&==&&&&&&&&&&&&#.$#",
"$$..==&&oXXX&&&&&&&&&&&&&&&&@@@@@@@@&&&&&&&&&&&&&&&&&&&&&&=&..$$",
"$$..&=&&XXXo&&&&&&&&&&&&&&&&@@@@@@@@&&&&&&&&&&&&&&&&&&&&&&==..$$",
"$$++...XXXXX&&&&&&&&&&&&&&&&@@@@@@@@==*&&&&&&&&&&&&&&&&&&&..$$$$",
"$$++..XXXXXX&&&&&&&&&&&&&&&&@@@@@@@@-=&&&&&&&&&&&&&&&&&&&&..$$$$",
"$$++..==XXXX&&&&&&&&&&&&&&&&@@@@@@@@&&&&&&&&&&&&&&&&&&&&==..$$$$",
"$$++..&=XXXX&&&&&&&&&&&&&&&&@@@@@@@@&&&&&&&&&&&&&&&&&&&&==..$$$$",
"$$++..%%====..&&&&&&&&&&&&&&@@@@@@@ &&&&&&&&&&&&&&&&&=&=%%..#o#$",
"$$++..%%&=&=o.&&&&&&&&&&&&&&@@@@@@@@&&&&&&&&&&&&&&&&===&%%..#o$$",
"$$++..%%%%%%==&=&&===&====&=%@%@%@@@&=&==&=&=====&&=%%%%%%..+#$$",
"$$++..%%%%%%&======&===&&===%@@%@%@%========&=&&====%%%%%%..+o$$",
"$$++..oo%%%%%%%%%%%%%%%%%%%%@  @@@ @%%%%%%%%%%%%&%%%%%%%oo..++$$",
"$$++..oo%%%%%%%%%%%%%%%%%%%%     O  %%%%%%%%%%%%%%%%%%%%oo..++$$",
"$$$$..oooo%%%%%%%%%%%%%%%%%%        %%%%%%%%%%%%%%%%%%oooo..++$$",
"$$$$..oo..%%%%%%%%%%%%%%%%%% @   @ @%%%%%%%%%%%%%%%%%%Xooo..++$$",
"$$$$..ooooooooooooooooooooXo        ooooooooXooo..oooooooo..##$$",
"$$$$..ooooooooXooooXoXoooooo        oooooooooooo.#.ooooooo..oo$$",
"$$$$$$..oooooooooooooooooooo   @    oooooooooo$oo#oooooo..####$$",
"$$$$$$..oooooooo$ooooooooooo@     O.oooooooooooooooo$ooo..####$$",
"$$++++##..ooooooooo+oooooooo.O  @  @oooooooooooooooooo..$$$$$$$$",
"$$++++##..ooooo$oooooooooooo@  @    oooooooooooooooooo..$$$$$$$$",
"$$++++##o+....oooooooooooooo @  @  @oooooooooooooo....#$$$++++$$",
"$$++++##++....oooooooooooooo        oooooooooooooo....$$$$+++.$$",
"$$##########$$..............        ..............$$$$$$$$$$$$$$",
"$$##########$$...O..........        ..............$$$$$$$$$$$$$$",
"$$++++##++++$$$$$$++++$$$$$$........++$$++++++++++##$$++$$++++$$",
"$$++++##++++$$$$$$++++$$$$+#... ....++$$++++++++++##$$++$$++++$$",
"$$++++##++++$$$$$$++++++++#+++$#+#$$$$$$++++++++++##$$++$$++++$$",
"$$++++##++++$$$$$$+++++++++#+++$##$$$$$$++++++++++##$$++$$++++$$",
"$$$$$$$$$$$$$$$$$$$$$$$$$$$$$$$$+$$$$$$$$$$$$$$$$$$$$$$$$$$$$$$$",
"$$$$$$$$$$$$$$$$$$$$$$$$$$$$$$$$+#$$$$$$$$$$$$$$$$$$$$$$$$$$$$$$"
};
