/* XPM */
static char *eo[] = {
/* columns rows colors chars-per-pixel */
"64 64 10 1 ",
"  c #222034",
". c #4C2611",
"X c #542B14",
"o c #5C2A32",
"O c #6D4239",
"+ c #69564B",
"@ c #844C2E",
"# c #834D30",
"$ c #A9623B",
"% c #BD7851",
/* pixels */
"################################OO##############################",
"################################OO##############################",
"##oooo##oo##++oooooooooo######OOOOooooOOoooooo######oooo++oooo##",
"##oooo##oo##++oooooooooo######OOOOooooOOoooooo######oooo++oooo##",
"##oooo##oo##++oooooooooo##OO##OOOO####OO##oooo######oooo++oooo##",
"##oooo##oo##++oooooooooo##OO##OOOO####OO##oooo######oooo++oooo##",
"##################++++++++++##++++++++++##++++######++++++++++##",
"##################++++++++++##++++++++++##++++######++++++++++##",
"##oooo######++oo##++++++++++##++++++++++##++++######oooo++oooo##",
"##oooo######++oo##++++++++++##++++++++++##++++######oooo++oooo##",
"################                                ####oooo++oooo##",
"################                                ####oooo++oooo##",
"##++++##++      %%%%%%%%%%%%%%%%%%%%%%%%%%%%%%%%      ##########",
"##++++##++      %%%%%%%%%%%%%%%%%%%%%%%%%%%%%%%%      ##########",
"##oooo##  %%%%%%@@@@@@@@@@@@@@@@@@@@@@@@@@@@@@@@%%%%%%  ########",
"##oooo##  %%%%%%@@@@@@@@@@@@@@@@@@@@@@@@@@@@@@@@%%%%%%  ########",
"##oooo  %%@@@@@@@@@@@@@@@@@@@@@@@@@@@@@@@@@@@@@@@@@@@@%%  ######",
"##oooo  %%@@@@@@@@@@@@@@@@@@@@@@@@@@@@@@@@@@@@@@@@@@@@%%  ######",
"##oo  %%@@@@@@@@@@@@@@@@@@@@@@@@@@@@@@@@@@@@@@@@@@@@@@@@%%  oo##",
"##oo  %%@@@@@@@@@@@@@@@@@@@@@@@@@@@@@@@@@@@@@@@@@@@@@@@@%%  oo##",
"##oo  %%@@@@@@@@@@@@@@@@@@@@@@@@@@@@@@@@@@@@@@@@@@@@@@@@%%  oo##",
"##oo  %%@@@@@@@@@@@@@@@@@@@@@@@@@@@@@@@@@@@@@@@@@@@@@@@@%%  oo##",
"##oo  %%@@@@@@@@$$$$$$$$$$$$$$$$$$$$$$$$$$$$$$$$@@@@@@@@%%  oo##",
"##oo  %%@@@@@@@@$$$$$$$$$$$$$$$$$$$$$$$$$$$$$$$$@@@@@@@@%%  oo##",
"##  %%@@@@@@@@$$$$$$$$$$$$$$$$$$$$$$$$$$$$$$$$$$$$@@@@@@@@%%  ##",
"##  %%@@@@@@@@$$$$$$$$$$$$$$$$$$$$$$$$$$$$$$$$$$$$@@@@@@@@%%  ##",
"##  %%@@@@$$$$$$$$$$$$$$$$$$$$$$$$$$$$$$$$$$$$$$$$$$$$@@@@%%  ##",
"##  %%@@@@$$$$$$$$$$$$$$$$$$$$$$$$$$$$$$$$$$$$$$$$$$$$@@@@%%  ##",
"##  %%@@$$$$$$$$$$$$$$$$$$$$$$$$$$$$$$$$$$$$$$$$$$$$$$$$@@%%  ##",
"##  %%@@$$$$$$$$$$$$$$$$$$$$$$$$$$$$$$$$$$$$$$$$$$$$$$$$@@%%  ##",
"##  %%@@$$$$$$$$$$$$$$$$$$$$$$$$$$$$$$$$$$$$$$$$$$$$$$$$@@%%  ##",
"##  %%@@$$$$$$$$$$$$$$$$$$$$$$$$$$$$$$$$$$$$$$$$$$$$$$$$@@%%  ##",
"##  %%@@$$$$$$$$$$$$$$$$$$$$$$$$$$$$$$$$$$$$$$$$$$$$$$$$@@%%  ##",
"##  %%@@$$$$$$$$$$$$$$$$$$$$$$$$$$$$$$$$$$$$$$$$$$$$$$$$@@%%  ##",
"##  %%@@$$$$$$$$$$$$$$$$$$$$$$$$$$$$$$$$$$$$$$$$$$$$$$$$@@%%  ##",
"##  %%@@$$$$$$$$$$$$$$$$$$$$$$$$$$$$$$$$$$$$$$$$$$$$$$$$@@%%  ##",
"##oo  %%$$$$$$$$$$$$$$$$$$$$$$$$$$$$$$$$$$$$$$$$$$$$$$$$%%  ####",
"##oo  %%$$$$$$$$$$$$$$$$$$$$$$$$$$$$$$$$$$$$$$$$$$$$$$$$%%  ####",
"##oo  %%$$$$$$$$$$$$$$$$$$$$$$$$$$$$$$$$$$$$$$$$$$$$$$$$%%  ####",
"##oo  %%$$$$$$$$$$$$$$$$$$$$$$$$$$$$$$$$$$$$$$$$$$$$$$$$%%  ####",
"##oo  XX%%%%$$$$$$$$$$$$$$$$$$$$$$$$$$$$$$$$$$$$$$$$%%%%XX  oo##",
"##oo  XX%%%%$$$$$$$$$$$$$$$$$$$$$$$$$$$$$$$$$$$$$$$$%%%%XX  oo##",
"##oo  XXXXXX%%%%%%%%%%%%%%%%%%%%%%%%%%%%%%%%%%%%%%%%XXXXXX  oo##",
"##oo  XXXXXX%%%%%%%%%%%%%%%%%%%%%%%%%%%%%%%%%%%%%%%%XXXXXX  oo##",
"##oo  XXXXXXXXXXXXXXXXXXXXXXXXXXXXXXXXXXXXXXXXXXXXXXXXXXXX  oo##",
"##oo  XXXXXXXXXXXXXXXXXXXXXXXXXXXXXXXXXXXXXXXXXXXXXXXXXXXX  oo##",
"####  XXXXXXXXXXXXXXXXXXXXXXXXXXXXXXXXXXXXXXXXXXXXXXXXXXXX  oo##",
"####  XXXXXXXXXXXXXXXXXXXXXXXXXXXXXXXXXXXXXXXXXXXXXXXXXXXX  oo##",
"####  ..XXXXXXXXXXXXXXXXXXXXXXXXXXXXXXXXXXXXXXXXXXXXXXXX..  oo##",
"####  ..XXXXXXXXXXXXXXXXXXXXXXXXXXXXXXXXXXXXXXXXXXXXXXXX..  oo##",
"######  ..XXXXXXXXXXXXXXXXXXXXXXXXXXXXXXXXXXXXXXXXXXXX..  ++++##",
"######  ..XXXXXXXXXXXXXXXXXXXXXXXXXXXXXXXXXXXXXXXXXXXX..  ++++##",
"##oooo++  ..XXXXXXXXXXXXXXXXXXXXXXXXXXXXXXXXXXXXXXXX..  ########",
"##oooo++  ..XXXXXXXXXXXXXXXXXXXXXXXXXXXXXXXXXXXXXXXX..  ########",
"##oooo++oo    ....................................    ####oooo##",
"##oooo++oo    ....................................    ####oooo##",
"##++++++++++##                                    ##############",
"##++++++++++##                                    ##############",
"##oooo++oooo######oooo####OO##OOOO##oo##oooooooooo++##oo##oooo##",
"##oooo++oooo######oooo####OO##OOOO##oo##oooooooooo++##oo##oooo##",
"##oooo++oooo######ooooooooOOooOOOO######oooooooooo++##oo##oooo##",
"##oooo++oooo######ooooooooOOooOOOO######oooooooooo++##oo##oooo##",
"################################OO##############################",
"################################OO##############################"
};
