/* XPM */
static char *f[] = {
/* columns rows colors chars-per-pixel */
"64 64 4 1 ",
"  c #5C2A32",
". c #6D4239",
"X c #69564B",
"o c #834D30",
/* pixels */
"oooooooooooooooooooooooooooooooo..oooooooooooooooooooooooooooooo",
"oooooooooooooooooooooooooooooooo..oooooooooooooooooooooooooooooo",
"oo    oo  ooXX          oooooo....    ..      oooooo    XX    oo",
"oo    oo  ooXX          oooooo....    ..      oooooo    XX    oo",
"oo    oo  ooXX          oo..oo....oooo..oo    oooooo    XX    oo",
"oo    oo  ooXX          oo..oo....oooo..oo    oooooo    XX    oo",
"ooooooooooooooooooXXXXXXXXXXooXXXXXXXXXXooXXXXooooooXXXXXXXXXXoo",
"ooooooooooooooooooXXXXXXXXXXooXXXXXXXXXXooXXXXooooooXXXXXXXXXXoo",
"oo    ooooooXX  ooXXXXXXXXXXooXXXXXXXXXXooXXXXoooooo    XX    oo",
"oo    ooooooXX  ooXXXXXXXXXXooXXXXXXXXXXooXXXXoooooo    XX    oo",
"ooooooooooooooooooXXXXXXXXXXoo....oooo..ooXXXXoooooo    XX    oo",
"ooooooooooooooooooXXXXXXXXXXoo....oooo..ooXXXXoooooo    XX    oo",
"ooXXXXooXXoo            oo..oo....  ....    XXoooooooooooooooooo",
"ooXXXXooXXoo            oo..oo....  ....    XXoooooooooooooooooo",
"oo    oo  oo            oo..oo......  ..      XXXXoooooooooooooo",
"oo    oo  oo            oo..oo......  ..      XXXXoooooooooooooo",
"oo    oooooo    oooooooooooooo......oooooooooo  XXoooooooooooooo",
"oo    oooooo    oooooooooooooo......oooooooooo  XXoooooooooooooo",
"oo    XXXXXX    oooooooooooooo......oooooooooooo  XXXXXXXX    oo",
"oo    XXXXXX    oooooooooooooo......oooooooooooo  XXXXXXXX    oo",
"oo    XXXXXX    oooo    ..    ......  ..    oooo    XXXXXX    oo",
"oo    XXXXXX    oooo    ..    ......  ..    oooo    XXXXXX    oo",
"oo    XXXXXX    oooo    ..    ......  ..    oooo    oooooooo  oo",
"oo    XXXXXX    oooo    ..    ......  ..    oooo    oooooooo  oo",
"ooooooXXXXXXoooooooo........................oooo....ooXXXXoo  oo",
"ooooooXXXXXXoooooooo........................oooo....ooXXXXoo  oo",
"oooo  XXXXXX  oooooo    ..            ..    oooo    ooXXXXoo  oo",
"oooo  XXXXXX  oooooo    ..            ..    oooo    ooXXXXoo  oo",
"oooooooooooooooooooo    ..  ........  ............  ooXXXXoo  oo",
"oooooooooooooooooooo    ..  ........  ............  ooXXXXoo  oo",
"oo....XXXX................  ..    ..  ................XXXX....oo",
"oo....XXXX................  ..    ..  ................XXXX....oo",
"oo....XXXX................  ..    ..  ................XXXX....oo",
"oo....XXXX................  ..    ..  ................XXXX....oo",
"oo....XXXX................  ........  ..    oooooooooooooooooooo",
"oo....XXXX................  ........  ..    oooooooooooooooooooo",
"oo  ooXXXXoo    oooo    ..            ..    oooooo  XXXXXX  oooo",
"oo  ooXXXXoo    oooo    ..            ..    oooooo  XXXXXX  oooo",
"oo  ooXXXXoo....oooo........................ooooooooXXXXXXoooooo",
"oo  ooXXXXoo....oooo........................ooooooooXXXXXXoooooo",
"oo  oooooooo    oooo    ..........    ..    oooo    XXXXXX    oo",
"oo  oooooooo    oooo    ..........    ..    oooo    XXXXXX    oo",
"oo    XXXXXX    oooo    ..........    ..    oooo    XXXXXX    oo",
"oo    XXXXXX    oooo    ..........    ..    oooo    XXXXXX    oo",
"oo    XXXXXXXX  oooooooooooo......oooooooooooooo    XXXXXX    oo",
"oo    XXXXXXXX  oooooooooooo......oooooooooooooo    XXXXXX    oo",
"ooooooooooooooXX  oooooooooo......oooooooooooooo    oooooo    oo",
"ooooooooooooooXX  oooooooooo......oooooooooooooo    oooooo    oo",
"ooooooooooooooXXXX      ..  ......oooooo            oo  oo    oo",
"ooooooooooooooXXXX      ..  ......oooooo            oo  oo    oo",
"ooooooooooooooooooXX    ....  ....oo  oo            ooXXooXXXXoo",
"ooooooooooooooooooXX    ....  ....oo  oo            ooXXooXXXXoo",
"oo    XX    ooooooXXXXoooo..oo....ooXXXXXXXXXXoooooooooooooooooo",
"oo    XX    ooooooXXXXoooo..oo....ooXXXXXXXXXXoooooooooooooooooo",
"oo    XX    ooooooXXXXooXXXXXXXXXXooXXXXXXXXXXoo  XXoooooo    oo",
"oo    XX    ooooooXXXXooXXXXXXXXXXooXXXXXXXXXXoo  XXoooooo    oo",
"ooXXXXXXXXXXooooooXXXXooXXXXXXXXXXooXXXXXXXXXXoooooooooooooooooo",
"ooXXXXXXXXXXooooooXXXXooXXXXXXXXXXooXXXXXXXXXXoooooooooooooooooo",
"oo    XX    oooooo    oooo..oo....oo  oo          XXoo  oo    oo",
"oo    XX    oooooo    oooo..oo....oo  oo          XXoo  oo    oo",
"oo    XX    oooooo        ..  ....oooooo          XXoo  oo    oo",
"oo    XX    oooooo        ..  ....oooooo          XXoo  oo    oo",
"oooooooooooooooooooooooooooooooo..oooooooooooooooooooooooooooooo",
"oooooooooooooooooooooooooooooooo..oooooooooooooooooooooooooooooo"
};
