/* XPM */
static char *p0[] = {
/* columns rows colors chars-per-pixel */
"64 64 15 1 ",
"  c #2A251A",
". c #222034",
"X c #5C2A32",
"o c #6D4239",
"O c #69564B",
"+ c #834D30",
"@ c #C7C3BA",
"# c #D2CDC1",
"$ c #DDD9CF",
"% c #E0DCD3",
"& c #E7E5DD",
"* c #E8E7E0",
"= c #ECEBE5",
"- c #EDECE4",
"; c #F5F4EC",
/* pixels */
"++++++++++++++++++++++++++++++++oo++++++++++++++++++++++++++++++",
"++++++++++++++++++++++++++++++++oo++++++++++++++++++++++++++++++",
"++XXXX++XX++OOXXXXXXXXXX++++++ooooXXXXooXXXXXX++++++XXXXOOXXXX++",
"++XXXX++XX++OOXXXXXXXXXX++++++ooooXXXXooXXXXXX++++++XXXXOOXXXX++",
"++XXXX++XX++OOXXXXXXXXXX++oo++oooo++++oo++XXXX++++++XXXXOOXXXX++",
"++XXXX++XX++OOXXXXXXXXXX++oo++oooo++++oo++XXXX++++++XXXXOOXXXX++",
"++++++++++++++++++OOOOOOOOOO++OOOOOOOOOO++OOOO++++++OOOOOOOOOO++",
"++++++++++++++++++OOOOOOOOOO++OOOOOOOOOO++OOOO++++++OOOOOOOOOO++",
"++XXXX++++++OOXX++OOOOOOOOOO++OOOOOOOOOO++OOOO++++++XXXXOOXXXX++",
"++XXXX++++++OOXX++OOOOOOOOOO++OOOOOOOOOO++OOOO++++++XXXXOOXXXX++",
"++++++++++++++++++OOOOOOOOOO++oooo++++oo++OOOO++++++XXXXOOXXXX++",
"++++++++++++++++++OOOOOOOOOO++oooo++++oo++OOOO++++++XXXXOOXXXX++",
"++OOOO++OO++XXXXXXXXXXXX++oo++ooooXXooooXXXXOO++++++++++++++++++",
"++OOOO++OO++XXXXXXXXXXXX++oo++ooooXXooooXXXXOO++++++++++++++++++",
"++XXXX++XX++XXXXXXXXXXXX++oo++ooooooXXooXXXXXXOOOO++++++++++++++",
"++XXXX++XX++XXXXXXXXXXXX++oo++ooooooXXooXXXXXXOOOO++++++++++++++",
"++XXXX++++++XXXX++++++++++............++++++++XXOO++++++++++++++",
"++XXXX++++++XXXX++++++++++............++++++++XXOO++++++++++++++",
"++XXXXOOOOOOXXXX++++++++..============..++++++++XXOOOOOOOOXXXX++",
"++XXXXOOOOOOXXXX++++++++..============..++++++++XXOOOOOOOOXXXX++",
"++XXXXOOOOOOXXXX++++XX..================..XX++++XXXXOOOOOOXXXX++",
"++XXXXOOOOOOXXXX++++XX..================..XX++++XXXXOOOOOOXXXX++",
"++XXXXOOOOOOXXXX++++..====================..++++XXXX++++++++XX++",
"++XXXXOOOOOOXXXX++++..====================..++++XXXX++++++++XX++",
"++++++OOOOOO++++++..==**==============;;**==..++oooo++OOOO++XX++",
"++++++OOOOOO++++++..==**==============;;**==..++oooo++OOOO++XX++",
"++++XXOOOOOOXX++..====******--====--**;;**====..XXXX++OOOO++XX++",
"++++XXOOOOOOXX++..====******--====--**;;**====..XXXX++OOOO++XX++",
"++++++++++++++..==;;**--**==--------==**--**====..XX++OOOO++XX++",
"++++++++++++++..==;;**--**==--------==**--**====..XX++OOOO++XX++",
"++ooooOOOOoooo..==;;;;----;;========------****==..ooooOOOOoooo++",
"++ooooOOOOoooo..==;;;;----;;========------****==..ooooOOOOoooo++",
"++ooooOOOOoo..====----==--==;;========--==----====..ooOOOOoooo++",
"++ooooOOOOoo..====----==--==;;========--==----====..ooOOOOoooo++",
"++ooooOOOOoo..****==--====------------====--==****..++++++++++++",
"++ooooOOOOoo..****==--====------------====--==****..++++++++++++",
"++XX++OOOO..==--========------====------========--==..OOOOXX++++",
"++XX++OOOO..==--========------====------========--==..OOOOXX++++",
"++XX++OOOO..==--  ==========--====--============  ==..OOOO++++++",
"++XX++OOOO..==--  ==========--====--============  ==..OOOO++++++",
"++XX++++..==========--============    ====--==========..OOXXXX++",
"++XX++++..==========--============    ====--==========..OOXXXX++",
"++XXXXOO..%%==----==;;;;======****======--**==----==%%..OOXXXX++",
"++XXXXOO..%%==----==;;;;======****======--**==----==%%..OOXXXX++",
"++XXXXOO..$$%%==----==****----****----****==;;--==%%$$..OOXXXX++",
"++XXXXOO..$$%%==----==****----****----****==;;--==%%$$..OOXXXX++",
"++++++++..@@$$&&==&&==========****==========&&==&&$$@@..++XXXX++",
"++++++++..@@$$&&==&&==========****==========&&==&&$$@@..++XXXX++",
"++++++++..@@%%$$%%======**============**======%%$$%%@@..++XXXX++",
"++++++++..@@%%$$%%======**============**======%%$$%%@@..++XXXX++",
"++++++++++..@@##$$$$$$$$&&&&$$&&&&$$&&&&$$$$$$$$##@@..OO++OOOO++",
"++++++++++..@@##$$$$$$$$&&&&$$&&&&$$&&&&$$$$$$$$##@@..OO++OOOO++",
"++XXXXOOXXXX..@@@@####@@@@@@@@@@@@@@@@@@@@####@@@@..++++++++++++",
"++XXXXOOXXXX..@@@@####@@@@@@@@@@@@@@@@@@@@####@@@@..++++++++++++",
"++XXXXOOXXXX++....................................OO++++++XXXX++",
"++XXXXOOXXXX++....................................OO++++++XXXX++",
"++OOOOOOOOOO++++++OOOO++OOOOOOOOOO++OOOOOOOOOO++++++++++++++++++",
"++OOOOOOOOOO++++++OOOO++OOOOOOOOOO++OOOOOOOOOO++++++++++++++++++",
"++XXXXOOXXXX++++++XXXX++++oo++oooo++XX++XXXXXXXXXXOO++XX++XXXX++",
"++XXXXOOXXXX++++++XXXX++++oo++oooo++XX++XXXXXXXXXXOO++XX++XXXX++",
"++XXXXOOXXXX++++++XXXXXXXXooXXoooo++++++XXXXXXXXXXOO++XX++XXXX++",
"++XXXXOOXXXX++++++XXXXXXXXooXXoooo++++++XXXXXXXXXXOO++XX++XXXX++",
"++++++++++++++++++++++++++++++++oo++++++++++++++++++++++++++++++",
"++++++++++++++++++++++++++++++++oo++++++++++++++++++++++++++++++"
};
