/* XPM */
static char *pa[] = {
/* columns rows colors chars-per-pixel */
"64 64 10 1 ",
"  c #0F3933",
". c #222034",
"X c #5C2A32",
"o c #155435",
"O c #6D4239",
"+ c #69564B",
"@ c #834D30",
"# c #C7C3BA",
"$ c #DFDBD2",
"% c #ECEBE4",
/* pixels */
"@@@@@@@@@@@@@@@@@@@@@@@@@@@@@@@@OO@@@@@@@@@@@@@@@@@@@@@@@@@@@@@@",
"@@@@@@@@@@@@@@@@@@@@@@@@@@@@@@@@OO@@@@@@@@@@@@@@@@@@@@@@@@@@@@@@",
"@@XXXX@@XX@@++XXXXXXXXXX@@@@@@OOOOXXXXOOXXXXXX@@@@@@XXXX++XXXX@@",
"@@XXXX@@XX@@++XXXXXXXXXX@@@@@@OOOOXXXXOOXXXXXX@@@@@@XXXX++XXXX@@",
"@@XXXX@@XX@@++XXXXXXXXXX@@OO@@OOOO@@@@OO@@XXXX@@@@@@XXXX++XXXX@@",
"@@XXXX@@XX@@++XXXXXXXXXX@@OO@@OOOO@@@@OO@@XXXX@@@@@@XXXX++XXXX@@",
"@@@@@@@@@@@@@@@@@@++++++++++@@++++++++++@@++++@@@@@@++++++++++@@",
"@@@@@@@@@@@@@@@@@@++++++++++@@++++++++++@@++++@@@@@@++++++++++@@",
"@@XXXX@@@@@@++XX@@++++++++++@@++++++++++@@++++@@@@@@XXXX++XXXX@@",
"@@XXXX@@@@@@++XX@@++++++++++@@++++++++++@@++++@@@@@@XXXX++XXXX@@",
"@@@@@@@@@@@@@@@@@@++++++++++@@OOOO@@@@OO@@++++@@@@@@XXXX++XXXX@@",
"@@@@@@@@@@@@@@@@@@++++++++++@@OOOO@@@@OO@@++++@@@@@@XXXX++XXXX@@",
"@@++++@@++@@XXXXXXXXXXXX@@OO@@OOOOXXOOOOXXXX++@@@@@@@@@@@@@@@@@@",
"@@++++@@++@@XXXXXXXXXXXX@@OO@@OOOOXXOOOOXXXX++@@@@@@@@@@@@@@@@@@",
"@@XXXX@@XX@@XXXXXXXXXXXX@@OO@@O+OOOOXXOOXXXXXX++++@@@@@@@@@@@@@@",
"@@XXXX@@XX@@XXXXXXXXXXXX@@OO@@O+OOOOXXOOXXXXXX++++@@@@@@@@@@@@@@",
"@@XXXX@@@@@@XXXX@@@@@@@@@@............@@@@@@@@XX++@@@@@@@@@@@@@@",
"@@XXXX@@@@@@XXXX@@@@@@@@@@............@@@@@@@@XX++@@@@@@@@@@@@@@",
"@@XXXX++++++XXXX@@@@@@@@..%%%%%%%%%%%%..@@@@@@@@XX++++++++XXXX@@",
"@@XXXX++++++XXXX@@@@@@@@..%%%%%%%%%%%%..@@@@@@@@XX++++++++XXXX@@",
"@@XXXX++++++XXXX@@@@XX..%%%%%%%%%%%%%%%%..XX@@@@XXXX++++++XXXX@@",
"@@XXXX++++++XXXX@@@@XX..%%%%%%%%%%%%%%%%..XX@@@@XXXX++++++XXXX@@",
"@@XXXX++++++XXXX@@@@..%%%%%%%%%%%%%%%%%%%%..@@@@XXXX@@@@@@@@XX@@",
"@@XXXX++++++XXXX@@@@..%%%%%%%%%%%%%%%%%%%%..@@@@XXXX@@@@@@@@XX@@",
"@@@@@@++++++@@@@@@..%%%%%%%%%%%%%%%%%%%%%%%%..@@OOOO@@++++@@XX@@",
"@@@@@@++++++@@@@@@..%%%%%%%%%%%%%%%%%%%%%$%%..@OOOOO@@++++@@XX@@",
"@@@@XX++++++XX@@..%%%%%%%%%%%%%%%%%%%%%%%%%%%%..XXXX@@++++@@XX@@",
"@@@@XX++++++XX@@..%%%%%%%$%%%%%%%%%%%%%%%$%%%%..XXXX@@++++@@XX@@",
"@@@@@@@@@@@@@@..%%%%%%%%$%%%%%%%%%%%%%%%%%$%%%%%..XX@@++++@@XX@@",
"@@@@@@@@@@@@@@..%%%%%%%%%%%%%%%%%%%%%%%%%%%%%%%%..XX@@++++@@XX@@",
"@@OOOO++++OOOO..%%%%%%%%%%%%%%%%%%%%%%%%%%%%%%%%..OOOO++++OOOO@@",
"@@OOOO++++OOOO..%%%%%%%%%%%%%%%%%%%%%%%%%%%$%%%%..OOOO++++OOOO@@",
"@@OOOO++++OO..%%%%%%%%%%%%%%%%%%%%%%%%%%%%%%%%%%%%..OO++++OOOO@@",
"@@OOOO++++OO..%%%%%%%%%%%%%%%%%%%%%%%%%%%%%%%%%%%%..OO++++OOOO@@",
"@@OOOO++++OO..%%%%%%%%%%%%%%%%%%%%%%%%%%%%%%%%%%%$..@@@@@@@@@@@@",
"@@OOOO++++OO..%%%%%%%%%%%%%%%%%%%%%%%%%%%%%%%%%%%%..@@@@@@@@@@@@",
"@@XX@@++++..%%%%%%%%%%%%%%%%%%%%%%%%%%%%%%%%%%%%%%%%..++++XX@@@@",
"@@XX@@++++..%%%%%%%%%%%%%%%%%%%%%%%%%%%%%%%%%%%%%%%%..++++XX@@@@",
"@@XX@@++++..%%%%..%%%%%%%%%%%%%%%%%%%%%%%%%%%%%%..%%..++++@@@@@@",
"@@XX@@++++..%%%%..%%%%%%%%%%%%%%%%%%%%%%%%%%%%%%..%%..++++@@@@@@",
"@@XX@@@@..%%%%%%%%%%%%%%%%%%%%%%%%....%%%%%%%%%%%%%%%%..++XXXX@@",
"@@XX@@@@..%%%%%%%%%%%%%%%%%%%%%%%%....%%%%%%%%%%%%%%%%..++XXXX@@",
"@@XXXX++..$$%%%%%%%%%%%%%%%%%%$%%%%%%%%%%%%$%%%%%%%%$$..++XXXX@@",
"@@XXXX++..$$%%%%%%%%%%%%%%%%%%%%%%%%%%%%%%%%%%%%%%%%$$..++XXXX@@",
"@@XXXX++..$#$$%%%%%%%%%%%%%%%%%%%%%%%%%%%$%%%%%%%%$$$$..++XXXX@@",
"@@XXXX++..$$$$%%%%%%%%%%%%%%%%%%%%%%%%$%%%%%%%%%%%$$$$..++XXXX@@",
"@@@@@@@@..##$$%%%%%%........................%%%%$%$$##..@@XXXX@@",
"@@@@@@@@..##$$$%%%%%..........oo............%%%%%$$$##..@@XXXX@@",
"@@@@@@@@..##$$$$$$..ooo ooooooooooooooooooo ..$$$$$$##..@@XXXX@@",
"@@@@@@@@..##$$$$$$..oo ooooooooooooooooooo  ..$$$$$$##..@@XXXX@@",
"@@@@@@@@@@..####$$..oooooooooo ooooooooooooo..$$$###..++@@++++@@",
"@@@@@@@@@@..###$$$..oooooooooo  oooooooo+ooo..$$####..++@@++++@@",
"@@XXXX++XXXX..####..            o       o   ..####..@@@@@@@@@@@@",
"@@XXXX++XXXX..####..                        ..####..@@@@@@@@@@@@",
"@@XXXX++XXXX@@....................................++@@@@@@XXXX@@",
"@@XXXX++XXXX@@......... ..........................++@@@@@@XXXX@@",
"@@++++++++++@@@@@@++++@@++++++++O+@@++++++++++@@@@@@@@@@@@@@@@@@",
"@@++++++++++@@@@@@++++@@++++++++++@@++++++++++@@@@@@@@@@@@@@@@@@",
"@@XXXX++XXXX@@@@@@XXXX@@@@OO@@OOOO@@XX@@XXXXXXXXXX++@@XX@@XXXX@@",
"@@XXXX++XXXX@@@@@@XXXX@@@@OO@@OOOO@@XX@@XXXXXXXXXX++@@XX@@XXXX@@",
"@@XXXX++XXXX@@@@@@XXXXXXXXOOXXOOOO@@@@@@XXXXXXXXXX++@@XX@@XXXX@@",
"@@XXXX++XXXX@@@@@@XXXXXXXXOOXXOOOO@@@@@@XXXXXXXXXX++@@XX@@XXXX@@",
"@@@@@@@@@@@@@@@@@@@@@@@@@@@@@@@@OO@@@@@@@@@@@@@@@@@@@@@@@@@@@@@@",
"@@@@@@@@@@@@@@@@@@@@@@@@@@@@@@@@OO@@@@@@@@@@@@@@@@@@@@@@@@@@@@@@"
};
