/* XPM */
static char *pa[] = {
/* columns rows colors chars-per-pixel */
"64 64 11 1 ",
"  c #14342D",
". c #222034",
"X c #5C2A32",
"o c #134939",
"O c #6D4239",
"+ c #1D6347",
"@ c #69564B",
"# c #834D30",
"$ c #C7C3BA",
"% c #DFDBD2",
"& c #ECEBE5",
/* pixels */
"################################OO##############################",
"################################OO##############################",
"##XXXX##XX##@@XXXXXXXXXX######OOOOXXXXOOXXXXXX######XXXX@@XXXX##",
"##XXXX##XX##@@XXXXXXXXXX######OOOOXXXXOOXXXXXX######XXXX@@XXXX##",
"##XXXX##XX##@@XXXXXXXXXX##OO##OOOO####OO##XXXX######XXXX@@XXXX##",
"##XXXX##XX##@@XXXXXXXXXX##OO##OOOO####OO##XXXX######XXXX@@XXXX##",
"##################@@@@@@@@@@##@@@@@@@@@@##@@@@######@@@@@@@@@@##",
"##################@@@@@@@@@@##@@@@@@@@@@##@@@@######@@@@@@@@@@##",
"##XXXX######@@XX##@@@@@@@@@@##@@@@@@@@@@##@@@@######XXXX@@XXXX##",
"##XXXX######@@XX##@@@@@@@@@@##@@@@@@@@@@##@@@@######XXXX@@XXXX##",
"##################@@@@@@@@@@##OOOO####OO##@@@@######XXXX@@XXXX##",
"##################@@@@@@@@@@##OOOO####OO##@@@@######XXXX@@XXXX##",
"##@@@@##@@##XXXXXXXXXXXX##OO##OOOOXXOOOOXXXX@@##################",
"##@@@@##@@##XXXXXXXXXXXX##OO##OOOOXXOOOOXXXX@@##################",
"##XXXX##XX##XXXXXXXXXXXX##OO##O@OOOOXXOOXXXXXX@@@@##############",
"##XXXX##XX##XXXXXXXXXXXX##OO##O@OOOOXXOOXXXXXX@@@@##############",
"##XXXX######XXXX##########............########XX@@##############",
"##XXXX######XXXX##########............########XX@@##############",
"##XXXX@@@@@@XXXX########..&&&&&&&&&&&&..########XX@@@@@@@@XXXX##",
"##XXXX@@@@@@XXXX########..&&&&&&&&&&&&..########XX@@@@@@@@XXXX##",
"##XXXX@@@@@@XXXX####XX..&&&&&&&&&&&&&&&&..XX####XXXX@@@@@@XXXX##",
"##XXXX@@@@@@XXXX####XX..&&&&&&&&&&&&&&&&..XX####XXXX@@@@@@XXXX##",
"##XXXX@@@@@@XXXX####..&&&&&&&&&&&&&&&&&&&&..####XXXX########XX##",
"##XXXX@@@@@@XXXX####..&&&&&&&&&&&&&&&&&&&&..####XXXX########XX##",
"######@@@@@@######..&&&&&&&&&&&&&&&&&&&&&%&&..##OOOO##@@@@##XX##",
"######@@@@@@######..&&&&&&&&&&&&&&&&&&&&&&&&..##OOOO##@@@@##XX##",
"####XX@@@@@@XX##..&&&&&&&&&&&&&&&&&&&&&&&%&&&&..XXXX##@@@@##XX##",
"####XX@@@@@@XX##..&&&&&&%%&&&&&&&&&&&&&&&%&&&&..XXXX##@@@@##XX##",
"##############..&&&&&&&&&&&&&&&&&&&&&&&&&&&&&&&&..XX##@@@@##XX##",
"##############..&&&&&&&&&%&&&&&&&&&&&&&&&&&&&&&&..XX##@@@@##XX##",
"##OOOO@@@@OOOO..&&&&&&&&&&&&&&&&&&&&&&&&&&&&&&&&..OOOO@@@@OOOO##",
"##OOOO@@@@OOOO..&&&&&&&&&&&&&&&&&&&&&&&&&&%%&&&&..OOOO@@@@OOOO##",
"##OOOO@@@@OO..&&&&&&&&&&&&&&&&&&&&&&&&&&&&&&&&&&&&..OO@@@@OOOO##",
"##OOOO@@@@OO..&&&&&&&&&&&&&&&&&&&&&&&&&&&&&&&&&&&&..OO@@@@OOOO##",
"##OOOO@@@@OO..%&&&&&&&&&&&&&&&&&&&&&&&&&&&&&&&&&&%..############",
"##OOOO@@@@OO..&&&&&&&&&&&&&&&&&&&&&&&&&&&&&&&&&&&&..############",
"##XX##@@@@..&&&&&&&&&&&&&&&&&&&&&&&&&&&&&&&&&&&&&&&&..@@@@XX####",
"##XX##@@@@..&&&&&&&&&&&&&&&&&&&&&&&&&&&&&&&&&&&&&&&&..@@@OXO####",
"##XX##@@@@..&&&&..&&&&&&&&&&&&&&&&&&&&&&&&&&&&&&  %&..O@@@######",
"##XX##@@@@..&&&& .&&&&&&&&&&&&&&&&&&&&&&&&&&&&&&.X%&..@@@@######",
"##XX####..%&&&&&%&&&&&&&&&&&&&&&&&.XX %&&&&&&&&&&&&&&&..@@XXXX##",
"##XX####..&&&&&&&&&&&&&&&&&&&&&&&&  ..%&&&&&&&&&&&&&&&..@@XXXX##",
"##XXXX@@..%%&&&&&&&&&&&&&&&&&&%&&&%&&&&&&&&&&&&&&&&&%%..@@XXXX##",
"##XXXX@@..%%&&&&&&&&&&&&&&&&&&&&%%&&&&&&&&&%&&&&&&&&%%..@@XXXX##",
"##XXXX@@..%%%%&&&&&&&&&&................&&&&&&&&&&%%%%..@@XXXX##",
"##XXXX@@..%%%%&&&&&&&&&&................&%&&&&&&&&%%%%..@@XXXX##",
"########..$$%%%&&&&%....o+oo++++++++++o+....&%&&%&%%$$..##XXXX##",
"########..$$%%&&&&&&....oooo++++++++++oo....&&&&&%%%$$..##XXXX##",
"########..$$%%%%%%..o+o oooooooooooooooooooo..%%%%%%$$..##XXXX##",
"########..$$%%%%%%..oo o+ooooooooooooooooooo..%%%%%%$$..##XXXX##",
"##########..$$$$..ooooooooooooooooooo+ ooooo  ..%$$$..@@##@@@@##",
"##########..$$$%..ooooo oooooooooooooooooooo  ..$$$$..@@##@@@@##",
"##XXXX@@XXXX..$$..          o o  o   o   o     .$$..############",
"##XXXX@@XXXX..$$..    o  oo o      o   o      ..$$..############",
"##XXXX@@XXXX##............................  ......@@######XXXX##",
"##XXXX@@XXXX##....................................@@######XXXX##",
"##@@@@@@@@@@######@@@@##@@@@@@@@@@##@@@@@@@@@@##################",
"##@@@@@@@@@@######@@@@##@@@@@@@@@@##@@@@@@@@@@##################",
"##XXXX@@XXXX######XXXX####OO##OOOO@#XX##XXXXXXXXXX@@##XX##XXXX##",
"##XXXX@@XXXX######XXXX####OO##OOOOO#XX##XXXXXXXXXX@@##XX##XXXX##",
"##XXXX@@XXXX######XXXXXXXXOOXXOOOO######XXXXXXXXXX@@##XX##XXXX##",
"##XXXX@@XXXX######XXXXXXXXOOXXOOOO######XXXXXXXXXX@@##XX##XXXX##",
"################################OO##############################",
"################################OO##############################"
};
