/* XPM */
static char *pc[] = {
/* columns rows colors chars-per-pixel */
"64 64 12 1 ",
"  c #2A251A",
". c #232136",
"X c #5C2A32",
"o c #6D4239",
"O c #69564B",
"+ c #834D30",
"@ c #B54926",
"# c #E05F26",
"$ c #FF9F5D",
"% c #D4C2B0",
"& c #E2DCD2",
"* c #ECEBE4",
/* pixels */
"++++++++++++++++++++++++++++++++oo++++++++++++++++++++++++++++++",
"++++++++++++++++++++++++++++++++oo++++++++++++++++++++++++++++++",
"++XXXX++XX++OOXXXXXXXXXX++++++ooooXXXXooXXXXXX++++++XXXXOOXXXX++",
"++XXXX++XX++OOXXXXXXXXXX++++++ooooXXXXooXXXXXX++++++XXXXOOXXXX++",
"++XXXX++XX++OOXXXXXXXXXX++oo++oooo++++oo++XXXX++++++XXXXOOXXXX++",
"++XXXX++XX++OOXXXXXXXXXX++oo++oooo++++oo++XXXo++++++XXXXOOXXXX++",
"++++++++++++++++++OOOOOOOOOO++OOOOOOOOOO++OOOO++++++OOOOOOOOOO++",
"++++++++++++++++++OOOOOOOOOO++OOOOOOOOOO++OOOO++++++OOOOOOOOOO++",
"++XXXX++++++OOXX++OOOOOOOOOO++OOOOOOOOOO++OOOO++++++XXXXOOXXXX++",
"++XXXX++++++OOXX++OOOOOOOOOO++OOOOOOOOOO++OOOO++++++XXXXOOXXXX++",
"++++++++++++++++++OOOO................X ..OOOO++++++XXXXOOXXXX++",
"++++++++++++++++++OOOO........  ....... ..OOOO++++++XXXXOOXXXX++",
"++OOOO++OO++XXXXXXXX.X&&$$**##$$$$***&##%% .OO++++++++++++++++++",
"++OOOO++OO++XXXXXXXX. &&$%&&#$$$$$**&&##%$ oOO+O++++++++++++++++",
"++XXXX++XX++XXXXXX. %$##&*$%$$##$$$$$$**#$$%..OOOO++++++++++++++",
"++XXXX++XX++XXXXoo.X%%##&*$%$$##$$$$$$**##%$..OOOO++++++++++++++",
"++XXXX++++++oXXX..##$$####$$$&$$##$$$$$$##%$##..OO++++++++++++++",
"++XXXX++++++XXXX..$#$$####$$%$$$##$$$$$$##%%##.XOO++++++++++++++",
"++XXXXOOOOOO....######$$####$#$$$$$$$$$$#$$$$$##....OOOOOOoXXX++",
"++XXXXOOOOOO....######$$######$$$$$$$$$$##$$$$##....OOOOOOoXXX++",
"++XXXXOOOO..$$$$$$$$#######$##########$$####$$$$$$$$ .OOOOXXXX++",
"++XXXXOOOO..$$$$$$$$###########$##$###$$###$$$$$$$$$..OOOOXXXX++",
"++XXXXOOOO..######$$######@@##@@@@##@@############$$..++++++XX++",
"++XXXXOOOO. #$####$$#$######@@#@##@@##$########$##$$..++++++XX++",
"++++++OO..$$$$##########@@@@@@@@@@@@@@@@@#########$$$$..OO++XX++",
"++++++OO..$$$$#####$##@@@#@@@#@@@@@@@@@#@#########$$$$..OO++XX++",
"++++XXOO..####@@#@###@@@@@...... .........@###@@######..OO++XX++",
"++++XXOO..######@@#@@#@@@@................@@@@@#@@####..OO++XX++",
"++++++++..#@@@@@@@@@......****************......@@#@#@..OO++XX++",
"++++++++..@#@#@@@@@@......****************......@@@@@@..OO++XX++",
"++ooooOOOO...... ...****************************......OOOOoooo++",
"++ooooOOOO..........****************************......OOOOoooo++",
"++ooooOOOOoo..************************************..ooOOOOoooo++",
"++ooooOOOOoo..************************************..ooOOOOoooo++",
"++ooooOOOOXo..&**********************************&..++++++++++++",
"++ooooOOOOOX..************************************..+++o++++++++",
"++XX++OOOO..****************************************..OOOOXX++++",
"++XX++OOOO..****************************************..OOOOXX++++",
"++XX++OOOO..****  ******************************  **..OOOO++++++",
"++XX+oOOOO..**** .******************************  **..OOOO++++++",
"++XX++++..&***********************    ****************..OOXXXX++",
"++XX++++..************************    ****************..OOXXXX++",
"++XXXXOO..&&******************&*********************&&..OOXXXX++",
"++XXXXOO..&&******************************&*********&&..OOXXXX++",
"++XXXXOO..&&&&****************&*******&***********&&&%..OOXXXX++",
"++XXXXOO..&&&&**********&********&******&*********&&&&..OOXXXX++",
"++++++++..%%&&&****************&*****************&&&%%..++XXXX++",
"++++++++..%%&&*&***************&*&**************&&&&%%..++XXXX++",
"++++++++..%%&&&&&&&*****&&*************&******&&&&&&%%..ooXXXX++",
"++++++++..%%&&&&&&&&***&*****&*****&**&&***&**&&&&&&%%..+OXXXX++",
"++++++++++..%%%%&%&&&&&&*&&*&&&&&*&&&*&&&&&&&&&&%&%%..OO++OOOO++",
"++++++++++..%%&%&&&&&&%&&*&*&&&&*&&&*&&&&&&%&&&&&%%%..OO++OOOO++",
"++XXXXOOXXXX..%&%%%%%&%%%%%%&%&%%%%%%%&%%%%%&%%%%%..OO++++++++++",
"++XXXXOOXXXX..%%%%%&&%%%%%%&%%%%%%%%%%%%%%%&%%%%%%..+o++++++++++",
"++XXXXOOXXXXoo....................................OO++++++XXXX++",
"++XXXXOOXXXX+O....................................OO++++++XXXX++",
"++OOOOOOOOOO++++++OOOO++OOOOOOOOOO++OOOOOOOOOO++++++++++++++++++",
"++OOOOOOOOOO++++++OOOO++OOOOOOOOOO++OOOOOOOOOO++++++++++++++++++",
"++XXXXOOXXXX++++++XXXX++++oo++ooOXO+XX++XXXXXXXXXXOO++XX++XXXX++",
"++XXXXOOXXXX++++++XXXX++++oo++ooOOO+XX++XXXXXXXXXXOO++XX++XXXX++",
"++XXXXOOXXXX++++++XXXXXXXXooXXoooo++++++XXXXXXXXXXOO++XX++XXXX++",
"++XXXXOOXXXX++++++XXXXXXXXooXXoooo++++++XXXXXXXXXXOO++XX++XXXX++",
"++++++++++++++++++++++++++++++++oo++++++++++++++++++++++++++++++",
"++++++++++++++++++++++++++++++++oo++++++++++++++++++++++++++++++"
};
