/* XPM */
static char *pca[] = {
/* columns rows colors chars-per-pixel */
"64 64 32 1 ",
"  c #2A251A",
". c #0D332E",
"X c #0F3631",
"o c #0F3A33",
"O c #222034",
"+ c #242238",
"@ c #5C2A32",
"# c #0F423A",
"$ c #1D4432",
"% c #124A3D",
"& c #105137",
"* c #6D4239",
"= c #1D6347",
"- c #69564B",
"; c #834D30",
": c #B54926",
"> c #C3502A",
", c #E46324",
"< c #EF6725",
"1 c #FF9E5B",
"2 c #FFAA69",
"3 c #FFC08F",
"4 c #C7C3BA",
"5 c #D2CDC1",
"6 c #DDD9CF",
"7 c #E0DCD3",
"8 c #E7E5DD",
"9 c #FDE6D4",
"0 c #E8E7E0",
"q c #ECEBE5",
"w c #EDECE4",
"e c #F5F4EC",
/* pixels */
";;;;;;;;;;;;;;;;;;;;;;;;;;;;;;;;**;;;;;;;;;;;;;;;;;;;;;;;;;;;;;;",
";;;;;;;;;;;;;;;;;;;;;;;;;;;;;;;;**;;;;;;;;;;;;;;;;;;;;;;;;;;;;;;",
";;@@@@;;@@;;--@@@@@@@@@@;;;;;;****@@@@**@@@@@@;;;;;;@@@@--@@@@;;",
";;@@@@;;@@;;--@@@@@@@@@@;;;;;;****@@@@**@@@@@@;;;;;;@@@@--@@@@;;",
";;@@@@;;@@;;--@@@@@@@@@@;;**;;****;;;;**;;@@@@;;;;;;@@@@--@@@@;;",
";;@@@@;;@@;;--@@@@@@@@@@;;**;;****;;;;**;;@@@@;;;;;;@@@@--@@@@;;",
";;;;;;;;;;;;;;;;;;----------;;----------;;----;;;;;;----------;;",
";;;;;;;;;;;;;;;;;;----------;;----------;;----;;;;;;----------;;",
";;@@@@;;;;;;--@@;;----------;;----------;;----;;;;;;@@@@--@@@@;;",
";;@@@@;;;;;;--@@;;----------;;----------;;----;;;;;;@@@@--@@@@;;",
";;;;;;;;;;;;;;;;;;----++++++++++++++++++++----;;;;;;@@@@--@@@@;;",
";;;;;;;;;;;;;;;;;;----++++++++++++++++++++----;;;;;;@@@@--@@@@;;",
";;----;;--;;@@@@@@@@++992299<<11229999<<33++--;;;;;;;;;;;;;;;;;;",
";;----;;--;;@@@@@@@@++992299<<11229999<<33++--;;;;;;;;;;;;;;;;;;",
";;@@@@;;@@;;@@@@@@++33<<993322<<11112299<<33++----;;;;;;;;;;;;;;",
";;@@@@;;@@;;@@@@@@++33<<993322<<11112299<<33++----;;;;;;;;;;;;;;",
";;@@@@;;;;;;@@@@++<<11<<<<113311<<111111<<33<<++--;;;;;;;;;;;;;;",
";;@@@@;;;;;;@@@@++<<11<<<<113311<<111111<<33<<++--;;;;;;;;;;;;;;",
";;@@@@------++++<<<<<<11<<<<<<1111111111<<1111<<++++------@@@@;;",
";;@@@@------++++<<<<<<11<<<<<<1111111111<<1111<<++++------@@@@;;",
";;@@@@----++11111111<<<<<<<<<<<<<<<<<<11<<<<11111111++----@@@@;;",
";;@@@@----++11111111<<<<<<<<<<<<<<<<<<11<<<<11111111++----@@@@;;",
";;@@@@----++<<<<<<11<<,,,,>>>>>>>>>>>>,,,,<<<<<<<<11++;;;;;;@@;;",
";;@@@@----++<<<<<<11<<,,,,>>>>>>>>>>>>,,,,<<<<<<<<11++;;;;;;@@;;",
";;;;;;--++1111,,,,,,,,>>>>::::::::::::>>>>,,,,,,,,1111++--;;@@;;",
";;;;;;--++1111,,,,,,,,>>>>::::::::::::>>>>,,,,,,,,1111++--;;@@;;",
";;;;@@--++,,,,>>>>>>>>::::++++++++++++++++>>>>>>>>,,,,++--;;@@;;",
";;;;@@--++,,,,>>>>>>>>::::++++++++++++++++>>>>>>>>,,,,++--;;@@;;",
";;;;;;;;++>>>>::::::++++++qqwwwwwwwwqq00ww++++++::>>>>++--;;@@;;",
";;;;;;;;++>>>>::::::++++++qqwwwwwwwwqq00ww++++++::>>>>++--;;@@;;",
";;****----++++++++++eewwwweeqqqqqqqqwwwwww0000qq++++++----****;;",
";;****----++++++++++eewwwweeqqqqqqqqwwwwww0000qq++++++----****;;",
";;****----**OOqqqqwwwwqqwwqqeeqqqqqqqqwwqqwwwwqqqqOO**----****;;",
";;****----**OOqqqqwwwwqqwwqqeeqqqqqqqqwwqqwwwwqqqqOO**----****;;",
";;****----**OO0000qqwwqqqqwwwwwwwwwwwwqqqqwwqq0000OO;;;;;;;;;;;;",
";;****----**OO0000qqwwqqqqwwwwwwwwwwwwqqqqwwqq0000OO;;;;;;;;;;;;",
";;@@;;----OOqqwwqqqqqqqqwwwwwwqqqqwwwwwwqqqqqqqqwwqqOO----@@;;;;",
";;@@;;----OOqqwwqqqqqqqqwwwwwwqqqqwwwwwwqqqqqqqqwwqqOO----@@;;;;",
";;@@;;----OOqqww  qqqqqqqqqqwwqqqqwwqqqqqqqqqqqq  qqOO----;;;;;;",
";;@@;;----OOqqww  qqqqqqqqqqwwqqqqwwqqqqqqqqqqqq  qqOO----;;;;;;",
";;@@;;;;OOqqqqqqqqqqwwqqqqqqqqqqqq    qqqqwwqqqqqqqqqqOO--@@@@;;",
";;@@;;;;OOqqqqqqqqqqwwqqqqqqqqqqqq    qqqqwwqqqqqqqqqqOO--@@@@;;",
";;@@@@--OO77qqwwwwqqeeeeqqqqqq0000qqqqqqww00qqwwwwqq77OO--@@@@;;",
";;@@@@--OO77qqwwwwqqeeeeqqqqqq0000qqqqqqww00qqwwwwqq77OO--@@@@;;",
";;@@@@--OO6677qqwwwwqq00OOOOOOOOOOOOOOOO00qqeewwqq7766OO--@@@@;;",
";;@@@@--OO6677qqwwwwqq00OOOOOOOOOOOOOOOO00qqeewwqq7766OO--@@@@;;",
";;;;;;;;OO446688qq88OOOO%%%%==========%%OOOO88qq886644OO;;@@@@;;",
";;;;;;;;OO446688qq88OOOO%%%%==========%%OOOO88qq886644OO;;@@@@;;",
";;;;;;;;OO44776677OO&&$$&&##%%%%%%%%%%%%&&$$OO77667744OO;;@@@@;;",
";;;;;;;;OO44776677OO&&$$&&##%%%%%%%%%%%%&&$$OO77667744OO;;@@@@;;",
";;;;;;;;;;OO4455OO%%$$####&&%%##$$##%%$$$$&&..OO5544OO--;;----;;",
";;;;;;;;;;OO4455OO%%$$####&&%%##$$##%%$$$$&&..OO5544OO--;;----;;",
";;@@@@--@@@@OO44OO..XXooooooooooooooooooooXX..OO44OO;;;;;;;;;;;;",
";;@@@@--@@@@OO44OO..XXooooooooooooooooooooXX..OO44OO;;;;;;;;;;;;",
";;@@@@--@@@@;;OOOOOOOOOOOOOOOOOOOOOOOOOOOOOOOOOOOO--;;;;;;@@@@;;",
";;@@@@--@@@@;;OOOOOOOOOOOOOOOOOOOOOOOOOOOOOOOOOOOO--;;;;;;@@@@;;",
";;----------;;;;;;----;;----------;;----------;;;;;;;;;;;;;;;;;;",
";;----------;;;;;;----;;----------;;----------;;;;;;;;;;;;;;;;;;",
";;@@@@--@@@@;;;;;;@@@@;;;;**;;****;;@@;;@@@@@@@@@@--;;@@;;@@@@;;",
";;@@@@--@@@@;;;;;;@@@@;;;;**;;****;;@@;;@@@@@@@@@@--;;@@;;@@@@;;",
";;@@@@--@@@@;;;;;;@@@@@@@@**@@****;;;;;;@@@@@@@@@@--;;@@;;@@@@;;",
";;@@@@--@@@@;;;;;;@@@@@@@@**@@****;;;;;;@@@@@@@@@@--;;@@;;@@@@;;",
";;;;;;;;;;;;;;;;;;;;;;;;;;;;;;;;**;;;;;;;;;;;;;;;;;;;;;;;;;;;;;;",
";;;;;;;;;;;;;;;;;;;;;;;;;;;;;;;;**;;;;;;;;;;;;;;;;;;;;;;;;;;;;;;"
};
