/* XPM */
static char *pca2[] = {
/* columns rows colors chars-per-pixel */
"64 64 32 1 ",
"  c #0F3631",
". c #0F3A33",
"X c #222034",
"o c #242238",
"O c #5C2A32",
"+ c #0F423A",
"@ c #1D4432",
"# c #124A3D",
"$ c #105137",
"% c #13573D",
"& c #156229",
"* c #1B712D",
"= c #6D4239",
"- c #69564B",
"; c #834D30",
": c #B54926",
"> c #C3502A",
", c #E46324",
"< c #EF6725",
"1 c #FF9E5B",
"2 c #FFAA69",
"3 c #FFC08F",
"4 c #C7C3BA",
"5 c #D2CDC1",
"6 c #DDD9CF",
"7 c #E0DCD3",
"8 c #E7E5DD",
"9 c #FDE6D4",
"0 c #E8E7E0",
"q c #ECEBE5",
"w c #EDECE4",
"e c #F5F4EC",
/* pixels */
";;;;;;;;;;;;;;;;;;;;;;;;;;;;;;;;==;;;;;;;;;;;;;;;;;;;;;;;;;;;;;;",
";;;;;;;;;;;;;;;;;;;;;;;;;;;;;;;;==;;;;;;;;;;;;;;;;;;;;;;;;;;;;;;",
";;OOOO;;OO;;--OOOOOOOOOO;;;;;;====OOOO==OOOOOO;;;;;;OOOO--OOOO;;",
";;OOOO;;OO;;--OOOOOOOOOO;;;;;;====OOOO==OOOOOO;;;;;;OOOO--OOOO;;",
";;OOOO;;OO;;--OOOOOOOOOO;;==;;====;;;;==;;OOOO;;;;;;OOOO--OOOO;;",
";;OOOO;;OO;;--OOOOOOOOOO;;==;;====;;;;==;;OOOO;;;;;;OOOO--OOOO;;",
";;;;;;;;;;;;;;;;;;----------;;----------;;----;;;;;;----------;;",
";;;;;;;;;;;;;;;;;;----------;;----------;;----;;;;;;----------;;",
";;OOOO;;;;;;--OO;;----------;;----------;;----;;;;;;OOOO--OOOO;;",
";;OOOO;;;;;;--OO;;----------;;----------;;----;;;;;;OOOO--OOOO;;",
";;;;;;;;;;;;;;;;;;----oooooooooooooooooooo----;;;;;;OOOO--OOOO;;",
";;;;;;;;;;;;;;;;;;----oooooooooooooooooooo----;;;;;;OOOO--OOOO;;",
";;----;;--;;OOOOOOOOoo992299<<11229999<<33oo--;;;;;;;;;;;;;;;;;;",
";;----;;--;;OOOOOOOOoo992299<<11229999<<33oo--;;;;;;;;;;;;;;;;;;",
";;OOOO;;OO;;OOOOOOoo33<<993322<<11112299<<33oo----;;;;;;;;;;;;;;",
";;OOOO;;OO;;OOOOOOoo33<<993322<<11112299<<33oo----;;;;;;;;;;;;;;",
";;OOOO;;;;;;OOOOoo<<11<<<<113311<<111111<<33<<oo--;;;;;;;;;;;;;;",
";;OOOO;;;;;;OOOOoo<<11<<<<113311<<111111<<33<<oo--;;;;;;;;;;;;;;",
";;OOOO------oooo<<<<<<11<<<<<<1111111111<<1111<<oooo------OOOO;;",
";;OOOO------oooo<<<<<<11<<<<<<1111111111<<1111<<oooo------OOOO;;",
";;OOOO----oo11111111<<<<<<<<<<<<<<<<<<11<<<<11111111oo----OOOO;;",
";;OOOO----oo11111111<<<<<<<<<<<<<<<<<<11<<<<11111111oo----OOOO;;",
";;OOOO----oo<<<<<<11<<,,,,>>>>>>>>>>>>,,,,<<<<<<<<11oo;;;;;;OO;;",
";;OOOO----oo<<<<<<11<<,,,,>>>>>>>>>>>>,,,,<<<<<<<<11oo;;;;;;OO;;",
";;;;;;--oo1111,,,,,,,,>>>>::::::::::::>>>>,,,,,,,,1111oo--;;OO;;",
";;;;;;--oo1111,,,,,,,,>>>>::::::::::::>>>>,,,,,,,,1111oo--;;OO;;",
";;;;OO--oo,,,,>>>>>>>>::::oooooooooooooooo>>>>>>>>,,,,oo--;;OO;;",
";;;;OO--oo,,,,>>>>>>>>::::oooooooooooooooo>>>>>>>>,,,,oo--;;OO;;",
";;;;;;;;oo>>>>::::::ooooooqqwwwwwwwwqq00wwoooooo::>>>>oo--;;OO;;",
";;;;;;;;oo>>>>::::::ooooooqqwwwwwwwwqq00wwoooooo::>>>>oo--;;OO;;",
";;====----ooooooooooeewwwweeqqqqqqqqwwwwww0000qqoooooo----====;;",
";;====----ooooooooooeewwwweeqqqqqqqqwwwwww0000qqoooooo----====;;",
";;====----==XXqqqqwwwwqqwwqqeeqqqqqqqqwwqqwwwwqqqqXX==----====;;",
";;====----==XXqqqqwwwwqqwwqqeeqqqqqqqqwwqqwwwwqqqqXX==----====;;",
";;====----==XX0000qqwwqqqqwwwwwwwwwwwwqqqqwwqq0000XX;;;;;;;;;;;;",
";;====----==XX0000qqwwqqqqwwwwwwwwwwwwqqqqwwqq0000XX;;;;;;;;;;;;",
";;OO;;----XXqqwwqqqqqqqqwwwwwwqqqqwwwwwwqqqqqqqqwwqqXX----OO;;;;",
";;OO;;----XXqqwwqqqqqqqqwwwwwwqqqqwwwwwwqqqqqqqqwwqqXX----OO;;;;",
";;OO;;----XXqqwwXXqqqqqqqqqqwwqqqqwwqqqqqqqqqqqqXXqqXX----;;;;;;",
";;OO;;----XXqqwwXXqqqqqqqqqqwwqqqqwwqqqqqqqqqqqqXXqqXX----;;;;;;",
";;OO;;;;XXqqqqqqqqqqwwqqqqqqqqqqqqXXXXqqqqwwqqqqqqqqqqXX--OOOO;;",
";;OO;;;;XXqqqqqqqqqqwwqqqqqqqqqqqqXXXXqqqqwwqqqqqqqqqqXX--OOOO;;",
";;OOOO--XX77qqwwwwqqeeeeqqqqqq0000qqqqqqww00qqwwwwqq77XX--OOOO;;",
";;OOOO--XX77qqwwwwqqeeeeqqqqqq0000qqqqqqww00qqwwwwqq77XX--OOOO;;",
";;OOOO--XX6677qqwwwwqq0000wwww0000wwww0000qqeewwqq7766XX--OOOO;;",
";;OOOO--XX6677qqwwwwqq0000wwww0000wwww0000qqeewwqq7766XX--OOOO;;",
";;;;;;;;XX446688qq88XXXXXXXXXXXXXXXXXXXXXXXX88qq886644XX;;OOOO;;",
";;;;;;;;XX446688qq88XXXXXXXXXXXXXXXXXXXXXXXX88qq886644XX;;OOOO;;",
";;;;;;;;XX44776677XX$$@@**++##&&**####&&**@@XX77667744XX;;OOOO;;",
";;;;;;;;XX44776677XX$$@@**++##&&**####&&**@@XX77667744XX;;OOOO;;",
";;;;;;;;;;XX445566XX%%%%++%%**++@@++&&%%@@$$XX665544XX--;;----;;",
";;;;;;;;;;XX445566XX%%%%++%%**++@@++&&%%@@$$XX665544XX--;;----;;",
";;OOOO--OOOOXX4444XX  ....................  XX4444XX;;;;;;;;;;;;",
";;OOOO--OOOOXX4444XX  ....................  XX4444XX;;;;;;;;;;;;",
";;OOOO--OOOO;;XXXXXXXXXXXXXXXXXXXXXXXXXXXXXXXXXXXX--;;;;;;OOOO;;",
";;OOOO--OOOO;;XXXXXXXXXXXXXXXXXXXXXXXXXXXXXXXXXXXX--;;;;;;OOOO;;",
";;----------;;;;;;----;;----------;;----------;;;;;;;;;;;;;;;;;;",
";;----------;;;;;;----;;----------;;----------;;;;;;;;;;;;;;;;;;",
";;OOOO--OOOO;;;;;;OOOO;;;;==;;====;;OO;;OOOOOOOOOO--;;OO;;OOOO;;",
";;OOOO--OOOO;;;;;;OOOO;;;;==;;====;;OO;;OOOOOOOOOO--;;OO;;OOOO;;",
";;OOOO--OOOO;;;;;;OOOOOOOO==OO====;;;;;;OOOOOOOOOO--;;OO;;OOOO;;",
";;OOOO--OOOO;;;;;;OOOOOOOO==OO====;;;;;;OOOOOOOOOO--;;OO;;OOOO;;",
";;;;;;;;;;;;;;;;;;;;;;;;;;;;;;;;==;;;;;;;;;;;;;;;;;;;;;;;;;;;;;;",
";;;;;;;;;;;;;;;;;;;;;;;;;;;;;;;;==;;;;;;;;;;;;;;;;;;;;;;;;;;;;;;"
};
