/* XPM */
static char *pcab[] = {
/* columns rows colors chars-per-pixel */
"64 64 12 1 ",
"  c #232136",
". c #532A14",
"X c #5C2A32",
"o c #6A5045",
"O c #834D30",
"+ c #AF5631",
"@ c #E05F26",
"# c #BD7851",
"$ c #FF9F5D",
"% c #FFC08F",
"& c #F1E2D4",
"* c #ECEBE4",
/* pixels */
"OOOOOOOOOOOOOOOOOOOOOOOOOOOOOOOOoXOOOOOOOOOOOOOOOOOOOOOOOOOOOOOO",
"OOOOOOOOOOOOOOOOOOOOOOOOOOOOOOOOoOOOOOOOOOOOOOOOOOOOOOOOOOOoOOOO",
"OOXXXXOOXXOOooXXXXXXXXXXOOOOOOXoXXXXXXoOXXXXXXOOOOOOXXXXooXXXXOO",
"OOXXXXOOXXOOooXXXXXXXXXXOOOOOOOOOoXXXXoXXXXXXXOOOOOOXXXXooXXXXOO",
"OOXXXXOOXXOOoooXXXXXXXXXOOoOOOoXXoOOOOOXOOoXo.OOOOOOXXoXooXXXXOO",
"OOXXXXOOXXOOooXXXoXXXXXXOOooOOooooOOOOOoOooX.oOOOOOOXX oooXoXXOO",
"OOOOOOOOOOOOOOoOOOoooo                    ooooOOOOOOooooooooooOO",
"OOOOOOOOOOOOOOOOOooooo .                  ooooOOOOOOooooooooooOO",
"OOXXXXOOOOOOoooXOOoo  &&$$&&@@$$$$**&&@@%%  ooOOOOOOXXXXooXXXXoO",
"OOXXXoOOOOOOooXXOOoo  &&$%&&@@$$$$&*&&@@%%  ooOOOOOOXXXXooXoXXOO",
"OOOOOOOOOOOOOOoO    %%$@&&%%$%@@$$$$$$&&@$%%    OOOOXXXXooo XXOO",
"OOOOOOOOOOOOOOOO   .%%@@&&%%$$@@$$$$$$&&@@%%    OOOOXXXXooooXXOO",
"OOoooooOoo        $@$$@@@@$$%%$$@@$$$$$$@@%%@@        OOOOOOOOOO",
"OOooooOOoo       .@@$$@@@@$$%$$$@@$$$$$$@@%%@@ .      OOOOOOOOOO",
"OOXXXXOO  ##    @@$@@@$$@@@@@@$$$$$$$$$$@@$$$$@@    ##  OOOOOOOO",
"OOXXXXOO  ##    @@@@@@$$@@@$@@$@$$$$$$$$@@$$$$@$    ##  OOOoOOOO",
"OOXXXX  ##  $$$$$$$$@@@@@@@@@@@@@@@@@@$$@@@@$$$$$$$$  ##  OOOOOO",
"OOXXXX  +$  $$$$$$$$@@@$@@@@@@@@@@@@@@$@@@@@$$$$$$$$  ##  OOOOOO",
"OOXX  ##OO  @@@@@@$$@@@@@@+@@@++@@@+@@@@@@@@@@@@@@$$  OO##  XXOO",
"OOXX  ##OO  @@@@@@$$@@@@@@@+@++@@+++@+@@@@@@@@@@@@$$  OO##  XXOO",
"OOXX  ##  $$$$@@@@@@@@@@++++++++++++++@+@+@@@@@@@@$$$$  ##  XXOO",
"OOXX  ##  $$$@@@@@@@@@+@@++@++@#+++++++@@@@@@@@@@@$$$$  ##  XXOO",
"OOXX  ##  @@@@+@@++@@+++@+        .       @++@++@@@@@@  ##  XXOO",
"OOXX  ##  @@@@@+@++@+@++++                +@@+++@+@@@@  ##  XXOO",
"OO  ##OO  +++@++++++      ******&&********      ++++@+  OO##  OO",
"OO  ##OO  +@++++++++      *******&*****&**      ++@@++  OO##  OO",
"OO  ##OOOO        . **********************&*****      OOOO@#  OO",
"OO  ##OOOO          ****************************      OOOO##  OO",
"OO  ##OO++++  **&&******************************&&  O#+#OO##  OO",
"OO  ##OO++#O  ***&******************************&&  ++#OOO##  OO",
"OO  ##OO+++#  ***********************************&  O#++OO##  OO",
"OO  ##OO#+#O  ***&****************************&**&  #+++OO##  OO",
"OO  ##OO+#  ****************************************  ##oO##  OO",
"OO  ##OO+O  ****************************************  ++OO##  OO",
"OO  ##OO#O  ****  ******************************  **  ++OO##  OO",
"OO  ##OOO#  ****  ******************************  **  OOOO##  OO",
"OO.X  +#  ************************    ****************  ##  OOOO",
"OOXX  ##  ************************    ****************  #+  OOOO",
"OOXX  ##  &&******************&**********************&  ##  OOOO",
"OOXX  ##  &******************************************&  ##  OOOO",
"OOXX  ..####*&******************&*****************&&####..  .XOO",
"OOXX  ..+$##&&**********&&****&*******&*&*********&&###$..  XXOO",
"OOXX  ......O#####################+#############O###......  XXOO",
"OOXX  ......###########################$############......  XXOO",
"OOXX  .....O.................... ............... .........  XXOO",
"OOX.  ....................................................  XXOO",
"OOOO  ....................................................  XXOO",
"OOOO  ......X..........X..................................  XXOO",
"OOOO  ....................................................   XOO",
"OOOO  ....................................................  XXOO",
"OOOOOO  ................................................  ooooOO",
"OOOOoo  ................................................  ooooOO",
"OOXXXXoo  ............................................  OOOOOOOO",
"OOXXXXoo  ............................................  OOOOOOOO",
"OOXXXXoo.     ....................... . ..........    OOOOXXXXOO",
"OOXXXXooXX    ... ................................    OOOOXXXXOO",
"OOoooooooooooO                                    OOOOOOOOOOOOOO",
"OoooooooooooOO                                    OoOOOOOOOOOOOO",
"OOXXooooXXXXOOOOOOXX.XOOOOXoOOOoXXOOXXOOXXXXXXXXoXooOOXXOOXXXXOO",
"OOXX oooXXXXOOOOOOXXXXOOOOOXOOXooOOOX.OOXXXXXXXXXXooOOXXOOXXXXOO",
"OOoXXXooXXXXOOOOOOXXXXXX.XoOXXoXoXOOOOOOXXXXXXXXXXooOOXXOOXXXXOO",
"OOXXXXooXXXoOOOOOOXXXXXXXXoXXXoOOoOOOOOOXXXXXXXXXXooOOXXOOXXXXOO",
"OOOOOOOOOOOOOOOOOOOOOOOOOOOOOOOOXoOOOOOOOOOOOOOOOOOOOOOOOOOOOOOO",
"OOOOOOOOOOOOOOOOOOOOOOOOOOOOOOOOXOOOOOOOOOOOOOOOOOOOOOOOOOOOOOOO"
};
