/* XPM */
static char *w[] = {
/* columns rows colors chars-per-pixel */
"64 64 12 1 ",
"  c #2C1705",
". c #39250D",
"X c #393013",
"o c #463013",
"O c #433717",
"+ c #6C3F27",
"@ c #4C411D",
"# c #834D30",
"$ c #947931",
"% c #A58E43",
"& c #AA9551",
"* c #B9AD89",
/* pixels */
"++++++++++++++++++++++++++++++++++++++++++++++++++++++++++++++++",
"++++++++++++++++++++++++++++++++++++++++++++++++++++++++++++++++",
"++++########################################################++++",
"++++########################################################++++",
"++##++++++++++++++++++++++++++++++++++++++++++++++++++++++++##++",
"++##++++++++++++++++++++++++++++++++++++++++++++++++++++++++##++",
"++##++**$$%%$$%%%%$$$$$$$$%%%%$$$$$$$$%%$$%%$$$$$$$$$$$$**++##++",
"++##++**$$%%$$%%%%$$$$$$$$%%%%$$$$$$$$%%$$%%$$$$$$$$$$$$**++##++",
"++##++XX**&&$$$$%%&&%%&&%%$$%%&&%%%%$$$$$$$$$$$$$$$$%%**OO++##++",
"++##++XX**&&$$$$%%&&%%&&%%$$%%&&%%%%$$$$$$$$$$$$$$$$%%**OO++##++",
"++##++XXOO**%%%%$$%%&&%%&&%%$$%%&&$$&&%%$$$$$$%%&&&&**@@XX++##++",
"++##++XXOO**%%%%$$%%&&%%&&%%$$%%&&$$&&%%$$$$$$%%&&&&**@@XX++##++",
"++##++XXOO@@**&&%%$$$$&&&&%%%%%%%%%%%%%%%%%%%%%%&&**@@OOXX++##++",
"++##++XXOO@@**&&%%$$$$&&&&%%%%%%%%%%%%%%%%%%%%%%&&**@@OOXX++##++",
"++##++XXOO@@@@**&&&&%%%%%%&&%%&&&&&&&&%%&&%%&&&&&&@@@@OOXX++##++",
"++##++XXOO@@@@**&&&&%%%%%%&&%%&&&&&&&&%%&&%%&&&&&&@@@@OOXX++##++",
"++##++OOXXOO@@@@**&&&&&&%%%%&&%%&&&&&&&&&&&&&&**@@@@OO@@OO++##++",
"++##++OOXXOO@@@@**&&&&&&%%%%&&%%&&&&&&&&&&&&&&**@@@@OO@@OO++##++",
"++##++OOOOOO@@@@@@&&&&&&&&&&&&&&&&&&&&&&&&&&**@@@@OOOOOOXX++##++",
"++##++OOOOOO@@@@@@&&&&&&&&&&&&&&&&&&&&&&&&&&**@@@@OOOOOOXX++##++",
"++##++XX@@OOOO@@@@@@**&&&&&&&&&&&&&&&&&&&&**@@@@@@@@OO@@XX++##++",
"++##++XX@@OOOO@@@@@@**&&&&&&&&&&&&&&&&&&&&**@@@@@@@@OO@@XX++##++",
"++##++XX@@OOOO@@@@@@@@&&&&&&&&&&&&&&&&&&**@@@@@@@@@@OOOOOO++##++",
"++##++XX@@OOOO@@@@@@@@&&&&&&&&&&&&&&&&&&**@@@@@@@@@@OOOOOO++##++",
"++##++OO@@@@OO@@@@@@@@@@**&&&&&&&&&&&&**@@@@@@@@@@OO@@@@OO++##++",
"++##++OO@@@@OO@@@@@@@@@@**&&&&&&&&&&&&**@@@@@@@@@@OO@@@@OO++##++",
"++##++XXOO@@OO@@@@@@@@@@@@**&&&&&&&&&&@@@@@@@@@@@@@@OO@@OO++##++",
"++##++XXOO@@OO@@@@@@@@@@@@**&&&&&&&&&&@@@@@@@@@@@@@@OO@@OO++##++",
"++##++XXOO@@@@@@@@@@@@@@@@@@**&&&&**@@@@@@@@@@@@OO@@OOOOOO++##++",
"++##++XXOO@@@@@@@@@@@@@@@@@@**&&&&**@@@@@@@@@@@@OO@@OOOOOO++##++",
"++##++XXOOOO@@@@@@@@@@@@@@@@@@****@@@@@@@@@@@@@@@@OO@@OOXX++##++",
"++##++XXOOOO@@@@@@@@@@@@@@@@@@****@@@@@@@@@@@@@@@@OO@@OOXX++##++",
"++##++XX@@OO@@@@@@@@@@@@@@@@@@oooo@@@@@@@@@@@@@@@@@@OOOOXX++##++",
"++##++XX@@OO@@@@@@@@@@@@@@@@@@oooo@@@@@@@@@@@@@@@@@@OOOOXX++##++",
"++##++XX@@OO@@@@@@@@@@@@@@@@oooooooo@@@@@@@@@@@@@@OO@@XXXX++##++",
"++##++XX@@OO@@@@@@@@@@@@@@@@oooooooo@@@@@@@@@@@@@@OO@@XXXX++##++",
"++##++XX@@OO@@@@@@@@@@@@@@oooooooooooo@@@@@@@@@@@@@@XXXXXX++##++",
"++##++XX@@OO@@@@@@@@@@@@@@oooooooooooo@@@@@@@@@@@@@@XXXXXX++##++",
"++##++XXOO@@OO@@@@@@@@@@oooooooooooooooo@@@@@@@@@@@@XXXXXX++##++",
"++##++XXOO@@OO@@@@@@@@@@oooooooooooooooo@@@@@@@@@@@@XXXXXX++##++",
"++##++XXOOOOOOOO@@@@@@oooooooooooooooooooo@@@@@@@@@@OOOOXX++##++",
"++##++XXOOOOOOOO@@@@@@oooooooooooooooooooo@@@@@@@@@@OOOOXX++##++",
"++##++XXOO@@@@OO@@@@oooooooooooooooooooooooo@@@@OO@@@@OOXX++##++",
"++##++XXOO@@@@OO@@@@oooooooooooooooooooooooo@@@@OO@@@@OOXX++##++",
"++##++OO@@@@OO@@@@oooooooooooooooooooooooooooo@@@@OO@@OOXX++##++",
"++##++OO@@@@OO@@@@oooooooooooooooooooooooooooo@@@@OO@@OOXX++##++",
"++##++OO@@@@OO@@oooooo..oooo..oooooo..oooooooooo@@@@OOXXXX++##++",
"++##++OO@@@@OO@@oooooo..oooo..oooooo..oooooooooo@@@@OOXXXX++##++",
"++##++XXXXOO@@....oooooo..oooo..oooooo..oo..oo..oo@@OOXXXX++##++",
"++##++XXXXOO@@....oooooo..oooo..oooooo..oo..oo..oo@@OOXXXX++##++",
"++##++OOXXOO....oo..oo..oooo..oo..oo..oo..oo..oo....OOXXXX++##++",
"++##++OOXXOO....oo..oo..oooo..oo..oo..oo..oo..oo....OOXXXX++##++",
"++##++XXXX............................................XXXX++##++",
"++##++XXXX............................................XXXX++##++",
"++##++XX      ..    ....              ..      ..    ..  XX++##++",
"++##++XX      ..    ....              ..      ..    ..  XX++##++",
"++##++                                                    ++##++",
"++##++                                                    ++##++",
"++##++++++++++++++++++++++++++++++++++++++++++++++++++++++++##++",
"++##++++++++++++++++++++++++++++++++++++++++++++++++++++++++##++",
"++++########################################################++++",
"++++########################################################++++",
"++####################++++++++++++++++++++####################++",
"++####################++++++++++++++++++++####################++"
};
