/* XPM */
static char *w[] = {
/* columns rows colors chars-per-pixel */
"64 64 9 1 ",
"  c #321508",
". c #37190D",
"X c #432011",
"o c #432215",
"O c #4C2514",
"+ c #65341F",
"@ c #854824",
"# c #8F502A",
"$ c #985A2E",
/* pixels */
"++oooooooooooooooooooooooooooooooooooooooooooooooooooo++XXXX..  ",
"++oooooooooooooooooooooooooooooooooooooooooooooooooooo++XXXX..  ",
"oo$$$$$$$$$$$$##$$$$$$$$$$$$$$@@@@@@@@$$$$$$$$$$$$$$$$OOXXXX..  ",
"oo$$$$$$$$$$$$##$$$$$$$$$$$$$$@@@@@@@@$$$$$$$$$$$$$$$$OOXXXX..  ",
"oo$$$$$$$$$$$$$$$$$$$$$$$$$$$$$$$$$$$$$$$$$$$$$$$$$$$$OOXXXX..  ",
"oo$$$$$$$$$$$$$$$$$$$$$$$$$$$$$$$$$$$$$$$$$$$$$$$$$$$$OOXXXX..  ",
"oo$$$$$$$$$$$$$$$$$$$$$$$$$$$$$$$$$$$$$$$$$$$$$$$$$$$$OOXXXX..  ",
"oo$$$$$$$$$$$$$$$$$$$$$$$$$$$$$$$$$$$$$$$$$$$$$$$$$$$$OOXXXX..  ",
"oo$$$$$$$$$$$$$$$$$$$$@@@@$$$$$$$$$$$$$$$$$$$$$$$$$$$$OOXXXX..  ",
"oo$$$$$$$$$$$$$$$$$$$$@@@@$$$$$$$$$$$$$$$$$$$$$$$$$$$$OOXXXX..  ",
"oo@@@@@@@@@@@@@@@@@@@@@@@@@@$$$$$$$$$$$$$$$$$$$$$$$$$$OOXXXX..  ",
"oo@@@@@@@@@@@@@@@@@@@@@@@@@@$$$$$$$$$$$$$$$$$$$$$$$$$$OOXXXX..  ",
"oo@@@@@@@@@@@@@@@@@@@@@@@@@@@@@@@@@@@@@@@@@@@@@@$$$$$$OOXXXX..  ",
"oo@@@@@@@@@@@@@@@@@@@@@@@@@@@@@@@@@@@@@@@@@@@@@@$$$$$$OOXXXX..  ",
"oo$$$$$$$$$$$$$$$$@@@@@@@@@@@@@@@@@@@@@@@@$$$$$$$$$$$$OOXXXX..  ",
"oo$$$$$$$$$$$$$$$$@@@@@@@@@@@@@@@@@@@@@@@@$$$$$$$$$$$$OOXXXX..  ",
"oo@@@@@@@@@@@@@@@@@@@@@@@@@@@@@@@@@@@@@@@@@@$$$$$$$$$$OOXXXX..  ",
"oo@@@@@@@@@@@@@@@@@@@@@@@@@@@@@@@@@@@@@@@@@@$$$$$$$$$$OOXXXX..  ",
"oo@@@@@@@@@@@@@@$$$$$$$$$$$$$$$$$$$$$$$$$$$$$$$$$$$$$$OOXXXX..  ",
"oo@@@@@@@@@@@@@@$$$$$$$$$$$$$$$$$$$$$$$$$$$$$$$$$$$$$$OOXXXX..  ",
"oo@@@@@@@@@@@@@@@@@@@@@@$$$$$$$$$$$$$$$$$$$$$$@@@@@@@@OOXXXX..  ",
"oo@@@@@@@@@@@@@@@@@@@@@@$$$$$$$$$$$$$$$$$$$$$$@@@@@@@@OOXXXX..  ",
"oo@@@@@@@@@@@@@@@@@@@@@@$$$$$$$$$$$$$$$$$$$$$$$$$$$$$$OOXXXX..  ",
"oo@@@@@@@@@@@@@@@@@@@@@@$$$$$$$$$$$$$$$$$$$$$$$$$$$$$$OOXXXX..  ",
"oo@@@@@@@@$$$$$$$$$$$$$$@@@@@@@@@@@@@@@@@@@@@@$$$$$$$$OOXXXX..  ",
"oo@@@@@@@@$$$$$$$$$$$$$$@@@@@@@@@@@@@@@@@@@@@@$$$$$$$$OOXXXX..  ",
"oo@@@@@@@@@@@@@@@@@@@@@@@@@@@@@@@@@@@@@@@@@@@@@@@@@@@@OOXXXX..  ",
"oo@@@@@@@@@@@@@@@@@@@@@@@@@@@@@@@@@@@@@@@@@@@@@@@@@@@@OOXXXX..  ",
"oo@@@@@@@@@@@@@@@@##@@@@@@@@##@@@@####@@@@@@@@####@@@@OOXXXX..  ",
"oo@@@@@@@@@@@@@@@@##@@@@@@@@##@@@@####@@@@@@@@####@@@@OOXXXX..  ",
"oo########@@@@@@######@@@@@@@@@@@@@@@@################OOXXXX..  ",
"oo########@@@@@@######@@@@@@@@@@@@@@@@################OOXXXX..  ",
"oo############################@@@@@@@@@@##############OOXXXX..  ",
"oo############################@@@@@@@@@@##############OOXXXX..  ",
"oo####@@@@@@@@########################################OOXXXX..  ",
"oo####@@@@@@@@########################################OOXXXX..  ",
"oo######$$$$$$########@@@@@@@@@@@@######@@####$$$$####OOXXXX..  ",
"oo######$$$$$$########@@@@@@@@@@@@######@@####$$$$####OOXXXX..  ",
"oo####$$$$$$$$$$####$$$$################$$$$$$######$$OOXXXX..  ",
"oo####$$$$$$$$$$####$$$$################$$$$$$######$$OOXXXX..  ",
"oo$$$$$$$$$$$$$$$$$$$$$$$$$$$$$$$$$$$$$$$$$$$$$$$$$$$$OOXXXX..  ",
"oo$$$$$$$$$$$$$$$$$$$$$$$$$$$$$$$$$$$$$$$$$$$$$$$$$$$$OOXXXX..  ",
"oo$$$$$$$$$$$$$$$$$$$$$$$$$$$$$$$$$$$$$$$$@@@@@@@@@@$$OOXXXX..  ",
"oo$$$$$$$$$$$$$$$$$$$$$$$$$$$$$$$$$$$$$$$$@@@@@@@@@@$$OOXXXX..  ",
"oo$$$$$$$$$$@@@@@@@@@@$$$$$$$$$$$$$$######@@@@@@@@@@$$OOXXXX..  ",
"oo$$$$$$$$$$@@@@@@@@@@$$$$$$$$$$$$$$######@@@@@@@@@@$$OOXXXX..  ",
"oo$$$$$$$$$$####$$$$$$$$$$$$$$$$$$$$$$$$$$$$$$$$$$$$$$OOXXXX..  ",
"oo$$$$$$$$$$####$$$$$$$$$$$$$$$$$$$$$$$$$$$$$$$$$$$$$$OOXXXX..  ",
"oo$$$$$$$$$$$$$$$$$$$$$$$$$$$$$$$$$$$$$$$$$$$$$$$$$$$$OOXXXX..  ",
"oo$$$$$$$$$$$$$$$$$$$$$$$$$$$$$$$$$$$$$$$$$$$$$$$$$$$$OOXXXX..  ",
"oo$$$$$$$$$$$$$$$$$$$$$$$$$$$$$$$$$$$$$$$$$$$$$$$$$$$$OOXXXX..  ",
"oo$$$$$$$$$$$$$$$$$$$$$$$$$$$$$$$$$$$$$$$$$$$$$$$$$$$$OOXXXX..  ",
"oo$$$$$$$$$$$$$$$$$$$$$$$$$$$$$$$$$$$$$$$$$$$$$$$$$$$$OOXXXX..  ",
"oo$$$$$$$$$$$$$$$$$$$$$$$$$$$$$$$$$$$$$$$$$$$$$$$$$$$$OOXXXX..  ",
"++OOOOOOOOOOOOOOOOOOOOOOOOOOOOOOOOOOOOOOOOOOOOOOOOOOOO++XXXX..  ",
"++OOOOOOOOOOOOOOOOOOOOOOOOOOOOOOOOOOOOOOOOOOOOOOOOOOOO++XXXX..  ",
"XXXXXXXXXXXXXXXXXXXXXXXXXXXXXXXXXXXXXXXXXXXXXXXXXXXXXXXXXXXX..  ",
"XXXXXXXXXXXXXXXXXXXXXXXXXXXXXXXXXXXXXXXXXXXXXXXXXXXXXXXXXXXX..  ",
"XXXXXXXXXXXXXXXXXXXXXXXXXXXXXXXXXXXXXXXXXXXXXXXXXXXXXXXXXXXX..  ",
"XXXXXXXXXXXXXXXXXXXXXXXXXXXXXXXXXXXXXXXXXXXXXXXXXXXXXXXXXXXX..  ",
"..............................................................  ",
"..............................................................  ",
"                                                                ",
"                                                                "
};
